<svg width="31" height="30" viewBox="0 0 31 30" fill="none" xmlns="http://www.w3.org/2000/svg">
<path d="M23.9376 12.1375V11.2563C23.9376 6.42 20.1576 2.5 15.5001 2.5C10.8426 2.5 7.06258 6.42 7.06258 11.2563V12.1375C7.06408 13.1894 6.76388 14.2198 6.19758 15.1063L4.81258 17.2625C3.54883 19.2313 4.51383 21.9075 6.71258 22.53C12.4577 24.1587 18.5424 24.1587 24.2876 22.53C26.4863 21.9075 27.4513 19.2312 26.1876 17.2637L24.8026 15.1075C24.2358 14.2211 23.9352 13.1908 23.9363 12.1388L23.9376 12.1375Z" stroke="black" stroke-width="1.5"/>
<path d="M9.875 23.75C10.6937 25.935 12.9025 27.5 15.5 27.5C18.0975 27.5 20.3063 25.935 21.125 23.75" stroke="black" stroke-width="1.5" stroke-linecap="round"/>
</svg>
