<svg width="30" height="31" viewBox="0 0 30 31" fill="none" xmlns="http://www.w3.org/2000/svg">
<path fill-rule="evenodd" clip-rule="evenodd" d="M9.06257 8C9.06257 6.42528 9.68813 4.91505 10.8016 3.80155C11.9151 2.68806 13.4253 2.0625 15.0001 2.0625C16.5748 2.0625 18.085 2.68806 19.1985 3.80155C20.312 4.91505 20.9376 6.42528 20.9376 8C20.9376 9.57472 20.312 11.0849 19.1985 12.1984C18.085 13.3119 16.5748 13.9375 15.0001 13.9375C13.4253 13.9375 11.9151 13.3119 10.8016 12.1984C9.68813 11.0849 9.06257 9.57472 9.06257 8ZM15.0001 3.9375C13.9226 3.9375 12.8893 4.36551 12.1274 5.12738C11.3656 5.88925 10.9376 6.92256 10.9376 8C10.9376 9.07744 11.3656 10.1108 12.1274 10.8726C12.8893 11.6345 13.9226 12.0625 15.0001 12.0625C16.0775 12.0625 17.1108 11.6345 17.8727 10.8726C18.6346 10.1108 19.0626 9.07744 19.0626 8C19.0626 6.92256 18.6346 5.88925 17.8727 5.12738C17.1108 4.36551 16.0775 3.9375 15.0001 3.9375ZM18.4688 16.1412C17.3258 15.9204 16.1642 15.8103 15.0001 15.8125C12.1088 15.8125 9.44382 16.47 7.47007 17.58C5.52507 18.675 4.06257 20.3325 4.06257 22.375V22.5025C4.06132 23.955 4.06007 25.7775 5.65882 27.08C6.44507 27.72 7.54632 28.1763 9.03382 28.4762C10.5238 28.7788 12.4676 28.9375 15.0001 28.9375C18.5851 28.9375 21.0126 28.62 22.6501 28.0113C24.1238 27.4613 24.9963 26.6588 25.4626 25.6463C26.253 25.1919 26.9281 24.5617 27.4355 23.8043C27.9429 23.0469 28.2691 22.1828 28.3887 21.2791C28.5082 20.3753 28.418 19.4561 28.1249 18.5929C27.8319 17.7296 27.3439 16.9455 26.6988 16.3012C26.1479 15.7492 25.4934 15.3114 24.7729 15.013C24.0523 14.7146 23.28 14.5615 22.5001 14.5625C20.9438 14.5625 19.5276 15.1625 18.4688 16.1412ZM8.38757 19.215C6.71257 20.1562 5.93757 21.3113 5.93757 22.375C5.93757 24.01 5.98757 24.93 6.84132 25.625C7.30382 26.0025 8.07882 26.3712 9.40382 26.6387C10.7251 26.9062 12.5313 27.0625 14.9988 27.0625C18.2213 27.0625 20.2988 26.7963 21.6376 26.375C20.3735 26.1907 19.2028 25.6027 18.3001 24.6987C17.7485 24.1476 17.3112 23.493 17.0133 22.7725C16.7153 22.052 16.5626 21.2797 16.5638 20.5C16.5638 19.54 16.7901 18.6337 17.1951 17.8312C16.4674 17.7349 15.7341 17.6868 15.0001 17.6875C12.3688 17.6875 10.0326 18.29 8.38757 19.215ZM18.4388 20.5C18.4388 19.777 18.6317 19.0671 18.9977 18.4435C19.3636 17.82 19.8894 17.3054 20.5206 16.9529C21.1519 16.6004 21.8658 16.4227 22.5886 16.4383C23.3114 16.4538 24.017 16.6619 24.6326 17.0413L19.0413 22.6325C18.6453 21.9918 18.4362 21.2532 18.4376 20.5M20.3663 23.9587L25.9576 18.3675C26.4384 19.146 26.6424 20.0639 26.5365 20.9728C26.4306 21.8816 26.0209 22.7281 25.3739 23.3751C24.7269 24.0221 23.8805 24.4318 22.9716 24.5377C22.0628 24.6436 21.1448 24.4396 20.3663 23.9587Z" fill="#FF4B4B"/>
</svg>
