<svg width="20" height="20" viewBox="0 0 20 20" fill="none" xmlns="http://www.w3.org/2000/svg">
<path d="M15.8363 8.19669L9.98006 13.9604C9.85228 14.0869 9.6798 14.1578 9.50006 14.1578C9.32032 14.1578 9.14783 14.0869 9.02006 13.9604L3.16381 8.19794C3.03524 8.0716 2.86219 8.0008 2.68193 8.0008C2.50167 8.0008 2.32863 8.0716 2.20006 8.19794C2.13675 8.25966 2.08643 8.33343 2.05208 8.4149C2.01772 8.49638 2.00002 8.5839 2.00002 8.67232C2.00002 8.76074 2.01772 8.84826 2.05208 8.92973C2.08643 9.0112 2.13675 9.08497 2.20006 9.14669L8.05506 14.9092C8.44071 15.2879 8.95959 15.5 9.50006 15.5C10.0405 15.5 10.5594 15.2879 10.9451 14.9092L16.8001 9.14669C16.8636 9.08495 16.914 9.01111 16.9485 8.92952C16.983 8.84793 17.0007 8.76026 17.0007 8.67169C17.0007 8.58312 16.983 8.49546 16.9485 8.41387C16.914 8.33228 16.8636 8.25843 16.8001 8.19669C16.6715 8.07035 16.4984 7.99955 16.3182 7.99955C16.1379 7.99955 15.9649 8.07035 15.8363 8.19669Z" fill="#858486"/>
</svg>
