<svg width="24" height="24" viewBox="0 0 24 24" fill="none" xmlns="http://www.w3.org/2000/svg">
<path fill-rule="evenodd" clip-rule="evenodd" d="M5.63616 13.707L11.293 19.3638C11.4805 19.5513 11.7349 19.6567 12.0001 19.6567C12.2653 19.6567 12.5197 19.5513 12.7072 19.3638L18.3641 13.707C18.5039 13.5671 18.5991 13.3889 18.6376 13.195C18.6762 13.001 18.6564 12.8 18.5807 12.6173C18.505 12.4346 18.3769 12.2784 18.2124 12.1686C18.048 12.0587 17.8547 12 17.657 12L6.34326 12C6.14551 12 5.95221 12.0587 5.78779 12.1686C5.62338 12.2784 5.49523 12.4346 5.41955 12.6173C5.34386 12.8 5.32405 13.001 5.3626 13.195C5.40116 13.3889 5.49635 13.5671 5.63616 13.707Z" fill="black"/>
</svg>
