<svg width="30" height="31" viewBox="0 0 30 31" fill="none" xmlns="http://www.w3.org/2000/svg">
<path d="M28.125 12.4531C28.125 20.6562 15.9621 27.2961 15.4441 27.5703C15.3076 27.6438 15.155 27.6822 15 27.6822C14.845 27.6822 14.6924 27.6438 14.5559 27.5703C14.0379 27.2961 1.875 20.6562 1.875 12.4531C1.87717 10.5268 2.64335 8.68005 4.00545 7.31795C5.36755 5.95585 7.21433 5.18967 9.14062 5.1875C11.5605 5.1875 13.6793 6.22812 15 7.98711C16.3207 6.22812 18.4395 5.1875 20.8594 5.1875C22.7857 5.18967 24.6325 5.95585 25.9946 7.31795C27.3566 8.68005 28.1228 10.5268 28.125 12.4531Z" stroke="#FF4B4B"  stroke-width="2"/>
</svg>
