<svg width="20" height="20" viewBox="0 0 20 20" fill="none" xmlns="http://www.w3.org/2000/svg">
<path d="M13.3033 15.9133L7.53956 10.4477C7.41315 10.3284 7.34224 10.1674 7.34224 9.9997C7.34224 9.83195 7.41315 9.67097 7.53956 9.55172L13.3021 4.08615C13.4284 3.96615 13.4992 3.80465 13.4992 3.63642C13.4992 3.46819 13.4284 3.30668 13.3021 3.18669C13.2403 3.1276 13.1666 3.08064 13.0851 3.04858C13.0036 3.01652 12.9161 3 12.8277 3C12.7393 3 12.6517 3.01652 12.5703 3.04858C12.4888 3.08064 12.415 3.1276 12.3533 3.18669L6.59081 8.6511C6.21215 9.01102 6 9.49528 6 9.9997C6 10.5041 6.21215 10.9884 6.59081 11.3483L12.3533 16.8127C12.415 16.872 12.4889 16.9191 12.5705 16.9513C12.6521 16.9834 12.7397 17 12.8283 17C12.9169 17 13.0045 16.9834 13.0861 16.9513C13.1677 16.9191 13.2416 16.872 13.3033 16.8127C13.4297 16.6927 13.5004 16.5312 13.5004 16.363C13.5004 16.1947 13.4297 16.0332 13.3033 15.9133Z" fill="black"/>
</svg>
