<svg width="25" height="25" viewBox="0 0 14 14" fill="none" xmlns="http://www.w3.org/2000/svg">
<path d="M12.8397 5.45754C12.8397 9.20245 7.28703 12.2337 7.05056 12.3589C6.98824 12.3924 6.91858 12.4099 6.84781 12.4099C6.77704 12.4099 6.70737 12.3924 6.64505 12.3589C6.40858 12.2337 0.855957 9.20245 0.855957 5.45754C0.856948 4.57814 1.20673 3.73505 1.82855 3.11322C2.45038 2.49139 3.29348 2.14162 4.17287 2.14062C5.27762 2.14062 6.24488 2.61569 6.84781 3.41871C7.45073 2.61569 8.41799 2.14062 9.52274 2.14062C10.4021 2.14162 11.2452 2.49139 11.8671 3.11322C12.4889 3.73505 12.8387 4.57814 12.8397 5.45754Z" fill="#ff8484"/>
</svg>
