<svg width="636" height="636" viewBox="0 0 636 636" fill="none" xmlns="http://www.w3.org/2000/svg">
<g clip-path="url(#clip0_104_1449)">
<mask id="mask0_104_1449" style="mask-type:luminance" maskUnits="userSpaceOnUse" x="0" y="0" width="636" height="636">
<path d="M636 0H0V636H636V0Z" fill="white"/>
</mask>
<g mask="url(#mask0_104_1449)">
<path d="M319.725 266.03C319.643 266.03 319.559 265.998 319.498 265.933C318.883 265.286 318.545 264.436 318.545 263.543C318.545 262.884 318.729 262.245 319.079 261.692C319.172 261.546 319.365 261.503 319.512 261.596C319.658 261.689 319.701 261.882 319.608 262.028C319.323 262.48 319.172 263.004 319.172 263.543C319.172 264.275 319.449 264.97 319.953 265.501C320.073 265.627 320.066 265.825 319.94 265.945C319.879 266.002 319.803 266.03 319.725 266.03Z" fill="#2B2F53"/>
<path d="M325.087 264.652C325.061 264.652 325.035 264.649 325.009 264.642C324.841 264.6 324.74 264.43 324.782 264.262C324.841 264.025 324.873 263.782 324.873 263.543C324.873 262.518 324.316 261.565 323.421 261.059C323.271 260.974 323.217 260.782 323.302 260.632C323.388 260.481 323.58 260.428 323.73 260.513C324.821 261.131 325.5 262.293 325.5 263.543C325.5 263.834 325.462 264.128 325.39 264.416C325.354 264.558 325.227 264.652 325.087 264.652Z" fill="#2B2F53"/>
<path d="M326.104 269.037L331.924 275.166L324.023 281.073L317.446 280.671L326.104 269.037Z" fill="#E69F82"/>
<path d="M311.026 269.069L308.597 269.319L308.159 267.455C308.566 267.419 308.849 267.394 308.958 267.377C309.382 267.323 310.37 268.199 311.026 269.069Z" fill="#E69F82"/>
<path d="M306.195 293.974C307.713 295.873 314.521 303.43 314.521 303.43C314.521 303.43 316.736 297.76 317.094 297.324C317.451 296.888 325.981 292.857 328.389 291.758C330.797 290.659 331.216 290.24 331.268 289.351C331.32 288.462 331.163 285.949 331.268 285.268C331.372 284.588 332.546 281.762 331.279 280.297C331.279 280.297 334.565 278.203 334.879 277.993C335.193 277.784 336.344 265.275 336.554 264.071C336.764 262.868 334.514 263.392 333.519 263.863C332.524 264.333 331.372 266.322 331.268 267.578C331.163 268.834 330.691 274.016 330.535 274.172C330.379 274.329 324.988 278.047 324.359 278.203C323.731 278.36 320.12 278.203 320.12 278.203C320.12 278.203 324.726 273.597 325.929 272.341C327.132 271.085 326.924 269.804 326.767 268.77C326.611 267.736 326.033 265.747 325.144 266.165C324.255 266.584 318.488 271.384 315.986 273.021C313.336 274.755 309.557 277.992 308.453 279.582C306.836 281.91 306.768 291.648 306.195 293.974Z" fill="#E69F82"/>
<path d="M231.047 243.054L230.716 243.767L230.207 244.873L226.086 253.866L225.335 255.494C225.335 255.494 225.666 258.445 226.734 261.524C227.803 264.602 228.808 274.842 228.808 274.842C228.808 274.842 227.142 273.57 226.264 272.565C225.399 271.56 224.19 268.952 224.19 268.952C224.19 268.952 212.742 260.722 208.99 257.771C205.25 254.833 199.005 249.491 199.005 249.491C203.177 241.909 204.602 238.348 205.085 236.44C205.327 235.473 205.327 234.926 205.327 234.494C209.855 233.184 219.319 232.497 231.047 243.054Z" fill="#E69F82"/>
<path d="M322.937 278.586C321.766 278.586 320.344 278.526 320.106 278.516C319.981 278.511 319.872 278.432 319.827 278.316C319.781 278.2 319.811 278.069 319.898 277.981C319.944 277.936 324.514 273.363 325.702 272.124C325.822 271.998 326.02 271.995 326.145 272.115C326.27 272.235 326.275 272.433 326.155 272.558C325.201 273.554 322.081 276.683 320.849 277.917C322.206 277.962 323.924 277.988 324.283 277.899C324.813 277.756 329.922 274.284 330.322 273.942C330.451 273.832 330.645 273.84 330.76 273.963C330.874 274.087 330.876 274.275 330.756 274.394C330.723 274.429 325.209 278.313 324.434 278.507C324.196 278.567 323.607 278.586 322.937 278.586Z" fill="#2B2F53"/>
<path d="M288.8 481.555C288.8 481.555 284.421 488.149 280.994 499.096C280.994 499.096 294.516 507.236 316.028 510.663C316.028 510.663 315.832 509.174 311.738 505.344C310.064 503.778 306.652 499.753 312.458 496.231C312.458 496.231 308.504 494.024 308.599 492.691C308.694 491.358 310.217 485.171 310.217 485.171L288.8 481.555Z" fill="#E69F82"/>
<path d="M118.36 492.979C118.36 492.979 109.707 486.873 108.129 487.358C106.552 487.844 104.004 491.606 104.004 491.606C104.004 491.606 102.183 472.191 111.769 466.125L120.796 469.047C118.865 477.147 117.942 485.136 118.36 492.979Z" fill="#E69F82"/>
<path d="M231.203 244.796L227.072 253.787C222.597 251.674 215.467 247.976 214.325 246.436C212.831 244.411 211.627 238.393 211.378 237.07C212.986 239.357 214.558 241.143 215.726 241.529C217.204 242.017 226.678 243.962 231.203 244.796Z" fill="#2B2F53"/>
<path d="M223.069 261.06C223.024 261.06 222.98 261.052 222.938 261.031C222.78 260.959 222.711 260.773 222.784 260.615C222.8 260.58 224.425 257.065 225.035 255.39C225.095 255.227 225.274 255.143 225.437 255.203C225.6 255.263 225.684 255.442 225.624 255.605C225.005 257.304 223.421 260.734 223.354 260.879C223.3 260.993 223.187 261.06 223.069 261.06Z" fill="#2B2F53"/>
<path d="M231.157 274.539C230.913 274.539 230.707 274.35 230.689 274.103L229.843 262.577C229.832 262.417 229.901 262.262 230.03 262.166C230.158 262.07 230.326 262.047 230.476 262.103C231.41 262.453 233.113 263.483 234.044 264.064C234.095 263.165 234.053 261.59 233.336 260.285C232.294 258.391 231.6 254.883 231.424 253.926C230.115 253.209 226.818 250.299 226.421 249.946C226.227 249.775 226.209 249.478 226.381 249.284C226.554 249.089 226.85 249.071 227.045 249.243C228.607 250.628 231.335 252.92 232.007 253.167C232.164 253.226 232.28 253.363 232.308 253.528C232.316 253.57 233.048 257.811 234.16 259.831C235.389 262.065 234.918 264.834 234.898 264.951C234.87 265.106 234.768 265.238 234.623 265.301C234.478 265.363 234.312 265.349 234.179 265.264C234.155 265.248 232.185 263.974 230.838 263.296L231.626 274.034C231.645 274.294 231.451 274.519 231.191 274.538C231.18 274.539 231.168 274.539 231.157 274.539Z" fill="#55C1E5"/>
<path d="M230.312 263.015C230.067 263.015 229.861 262.825 229.843 262.577C229.536 258.204 229.841 254.801 229.843 254.767C229.868 254.509 230.1 254.317 230.355 254.342C230.613 254.366 230.804 254.595 230.78 254.853C230.777 254.887 230.479 258.219 230.781 262.511C230.799 262.77 230.604 262.996 230.345 263.013C230.333 263.015 230.323 263.015 230.312 263.015Z" fill="#55C1E5"/>
<path d="M241.255 308.589C241.04 308.589 240.845 308.439 240.796 308.22C235.886 286.183 232.348 277.017 231.909 275.919C228.238 273.062 225.821 267.988 225.397 267.057C218.675 263.076 200.529 249.2 199.009 247.481C198.837 247.286 198.855 246.989 199.049 246.817C199.244 246.645 199.541 246.663 199.713 246.858C201.016 248.33 219.04 262.244 226.003 266.323C226.088 266.373 226.157 266.449 226.196 266.541C226.222 266.598 228.753 272.335 232.582 275.251C232.647 275.301 232.697 275.366 232.729 275.442C232.766 275.53 236.466 284.462 241.715 308.017C241.771 308.27 241.61 308.522 241.357 308.578C241.323 308.585 241.29 308.589 241.255 308.589Z" fill="#55C1E5"/>
<path d="M265.963 297.794C265.888 297.794 265.813 297.78 265.741 297.752C265.332 297.598 265.162 297.099 264.925 296.41C264.801 296.047 264.569 295.374 264.404 295.273C264.1 295.138 263.464 295.584 263.044 295.879C262.895 295.984 262.755 296.083 262.627 296.163C262.428 296.286 262.206 296.3 262.016 296.202C261.621 295.998 261.591 295.483 261.543 294.626C261.504 293.936 261.444 292.89 261.126 292.572C260.658 292.104 259.702 292.009 258.935 291.931C258.547 291.892 258.181 291.855 257.887 291.775C257.605 291.697 257.132 291.569 251.883 283.054C249.166 278.645 246.003 273.318 244.193 270.1C241.148 264.685 236.139 257.724 232.044 255.927C231.806 255.823 231.698 255.546 231.802 255.308C231.907 255.07 232.184 254.963 232.422 255.067C236.729 256.957 241.896 264.097 245.012 269.638C248.84 276.441 257.083 289.944 258.191 290.882C258.408 290.933 258.71 290.963 259.03 290.995C259.945 291.088 261.086 291.204 261.791 291.908C262.363 292.481 262.426 293.592 262.482 294.573C262.491 294.737 262.501 294.932 262.516 295.101C263.145 294.658 264.001 294.064 264.79 294.415C265.315 294.648 265.569 295.388 265.814 296.105C265.849 296.202 265.888 296.32 265.929 296.433C265.986 296.096 266.024 295.666 266.05 295.382C266.117 294.624 266.166 294.143 266.336 293.845C266.644 293.307 277.053 283.358 281.513 279.106C281.702 278.926 281.998 278.933 282.177 279.121C282.357 279.309 282.35 279.607 282.162 279.786C276.359 285.319 267.567 293.759 267.136 294.338C267.075 294.453 267.022 295.063 266.986 295.465C266.879 296.672 266.78 297.424 266.289 297.705C266.186 297.763 266.074 297.794 265.963 297.794Z" fill="#55C1E5"/>
<path d="M289.345 293.783C289.233 293.783 289.121 293.744 289.032 293.663C288.566 293.248 277.606 283.449 275.432 280.982C275.26 280.787 275.279 280.491 275.474 280.319C275.668 280.147 275.966 280.165 276.138 280.361C278.275 282.787 289.546 292.86 289.659 292.961C289.852 293.134 289.869 293.432 289.696 293.625C289.603 293.73 289.475 293.783 289.345 293.783Z" fill="#55C1E5"/>
<path d="M288.061 304.815C287.963 304.815 287.864 304.785 287.779 304.721C287.571 304.564 287.531 304.269 287.687 304.062C291.17 299.443 289.951 295.845 289.898 295.694C289.841 295.533 289.875 295.354 289.987 295.225C291.225 293.806 292.567 292.217 292.996 291.638C292.418 290.978 290.32 288.952 288.447 287.143C286.198 284.972 283.649 282.511 282.223 280.994C282.045 280.805 282.053 280.507 282.243 280.329C282.433 280.151 282.729 280.16 282.907 280.349C284.318 281.849 286.859 284.302 289.1 286.466C294.121 291.314 294.113 291.347 294.015 291.741C293.985 291.864 293.914 292.147 290.866 295.649C291.128 296.655 291.73 300.263 288.438 304.628C288.345 304.75 288.204 304.815 288.061 304.815Z" fill="#55C1E5"/>
<path d="M249.199 315.464C248.965 315.464 248.763 315.289 248.733 315.051C245.745 290.757 239.29 271.941 236.654 264.978C236.563 264.735 236.685 264.464 236.928 264.372C237.172 264.281 237.442 264.402 237.533 264.645C240.182 271.639 246.665 290.541 249.666 314.937C249.698 315.195 249.514 315.429 249.256 315.461C249.237 315.464 249.218 315.464 249.199 315.464Z" fill="#55C1E5"/>
<path d="M222.385 280.08C222.268 280.08 222.155 280.037 222.067 279.955C221.912 279.813 206.533 265.634 203.379 262.899C200.214 260.155 194.32 254.738 194.261 254.683C194.088 254.524 194.058 254.261 194.192 254.068C194.222 254.026 197.081 249.911 198.021 248.089C198.199 247.745 198.338 247.451 198.455 247.2C199.034 245.969 199.311 245.546 200.853 245.627C201.112 245.639 201.311 245.861 201.298 246.12C201.284 246.38 201.057 246.578 200.804 246.565C199.816 246.514 199.806 246.535 199.306 247.599C199.184 247.859 199.041 248.164 198.857 248.52C198.039 250.104 195.912 253.231 195.199 254.267C196.444 255.41 201.251 259.809 203.995 262.188C206.817 264.635 219.359 276.183 222.152 278.756C222.718 276.836 224.208 271.474 224.208 268.089C224.208 267.829 224.418 267.62 224.677 267.62C224.937 267.62 225.148 267.829 225.148 268.089C225.148 272.395 222.928 279.454 222.834 279.752C222.786 279.906 222.661 280.023 222.506 280.063C222.466 280.074 222.426 280.08 222.385 280.08Z" fill="#55C1E5"/>
<path d="M246.298 368.05C245.558 368.05 244.658 368.008 243.553 367.951C240.514 367.793 218.897 367.872 204.592 367.924C197.098 367.952 191.682 367.971 191.15 367.951C189.461 367.886 188.64 367.747 188.432 365.313C188.252 363.223 182.947 335.032 181.574 328.056C180.833 324.288 179.226 318.412 177.673 312.73C176.198 307.335 174.805 302.239 174.114 298.871C172.669 291.831 174.357 284.616 179.425 276.169C183.99 268.558 190.639 259.053 194.196 254.064C194.346 253.853 194.642 253.804 194.853 253.954C195.064 254.104 195.112 254.4 194.962 254.611C191.412 259.588 184.78 269.07 180.231 276.652C175.292 284.886 173.641 291.887 175.035 298.683C175.719 302.022 177.11 307.102 178.58 312.482C180.138 318.18 181.749 324.073 182.497 327.875C183.87 334.861 189.187 363.117 189.369 365.233C189.515 366.947 189.738 366.955 191.187 367.011C191.698 367.03 197.387 367.011 204.589 366.984C218.904 366.932 240.537 366.853 243.602 367.012C246.418 367.159 247.913 367.209 248.485 366.679C248.752 366.431 248.878 365.977 248.897 365.202C248.956 362.738 248.615 353.697 248.611 353.605C248.601 353.346 248.803 353.128 249.063 353.118C249.327 353.103 249.54 353.31 249.55 353.57C249.564 353.942 249.897 362.731 249.837 365.224C249.812 366.287 249.598 366.928 249.124 367.368C248.56 367.89 247.73 368.05 246.298 368.05Z" fill="#55C1E5"/>
<path d="M177.854 287.888C177.76 287.888 177.666 287.86 177.583 287.801C177.371 287.651 177.321 287.358 177.471 287.146C180.172 283.324 186.368 276.723 197.512 275.464C197.769 275.435 198.003 275.62 198.032 275.879C198.061 276.137 197.876 276.37 197.617 276.399C186.838 277.617 180.85 283.994 178.24 287.688C178.148 287.818 178.002 287.888 177.854 287.888Z" fill="#55C1E5"/>
<path d="M265.488 324.383C264.509 324.383 263.552 323.641 262.82 323.074C262.55 322.865 262.294 322.668 262.135 322.588C261.955 322.556 261.337 323.027 261.003 323.277C260.371 323.753 259.717 324.244 259.058 324.299C258.667 324.329 258.436 324.172 258.313 324.033C257.931 323.604 258.076 322.894 258.277 321.912C258.421 321.21 258.584 320.414 258.55 319.695C258.522 319.098 258.232 318.787 257.551 318.624C256.835 318.453 255.824 318.501 254.844 318.548C254.671 318.557 254.498 318.565 254.327 318.572C252.813 318.631 250.829 317.132 247.532 314.643C245.457 313.077 242.875 311.127 239.632 308.977C227.454 300.904 216.67 291.826 207.578 281.993C207.401 281.802 207.414 281.505 207.605 281.328C207.796 281.151 208.092 281.164 208.269 281.355C217.31 291.133 228.037 300.163 240.153 308.194C243.419 310.36 246.013 312.319 248.098 313.892C251.12 316.174 253.118 317.687 254.287 317.632L254.798 317.609C255.843 317.56 256.924 317.508 257.77 317.71C258.861 317.971 259.44 318.624 259.488 319.651C259.528 320.488 259.354 321.344 259.2 322.101C259.111 322.537 258.992 323.117 259.016 323.359C259.403 323.304 259.953 322.891 260.439 322.526C261.193 321.958 261.906 321.421 262.555 321.747C262.797 321.868 263.074 322.083 263.395 322.331C264.11 322.886 265.089 323.644 265.79 323.391C266.364 323.184 266.562 322.939 266.893 322.532C267.199 322.155 267.58 321.685 268.357 321.137C269.652 320.223 297.253 297.573 301.74 292.983C302.661 292.042 304.4 290.387 304.924 290.037C305.374 289.737 305.561 289.615 311.503 296.771C314.388 300.246 317.226 303.778 317.438 304.068C317.849 304.629 317.256 305.154 316.506 305.82C315.631 306.598 314.431 307.661 314.245 308.93C314.209 309.187 313.968 309.364 313.712 309.327C313.455 309.29 313.279 309.051 313.316 308.794C313.551 307.185 314.953 305.941 315.881 305.117C316.129 304.897 316.426 304.632 316.564 304.471C315.372 302.942 306.828 292.421 305.217 290.995C304.63 291.479 303.348 292.683 302.412 293.641C297.951 298.202 270.788 320.572 268.9 321.905C268.228 322.378 267.906 322.775 267.623 323.125C267.265 323.565 266.928 323.981 266.108 324.276C265.902 324.35 265.694 324.383 265.488 324.383Z" fill="#55C1E5"/>
<path d="M312.426 306.255C312.321 306.255 312.216 306.22 312.128 306.148C311.547 305.673 304.112 298.032 301.284 293.987C301.135 293.774 301.187 293.482 301.4 293.333C301.614 293.184 301.906 293.236 302.055 293.449C304.843 297.438 312.153 304.954 312.723 305.421C312.924 305.585 312.953 305.881 312.789 306.082C312.696 306.195 312.562 306.255 312.426 306.255Z" fill="#55C1E5"/>
<path d="M263.963 359.007C262.948 359.007 262.279 358.762 261.486 358.474C260.653 358.17 259.709 357.825 257.999 357.635C253.589 357.146 238.569 348.647 230.389 343.703C229.016 342.873 227.369 341.893 225.624 340.858C214.868 334.47 196.864 323.78 188.524 315.326C188.343 315.142 188.345 314.843 188.53 314.661C188.714 314.479 189.012 314.482 189.194 314.666C197.448 323.033 215.385 333.686 226.103 340.05C227.85 341.087 229.499 342.066 230.876 342.898C241.398 349.258 254.405 356.29 258.102 356.7C259.924 356.903 260.97 357.284 261.81 357.591C262.822 357.96 263.491 358.204 265.01 357.983C266.432 357.775 266.966 357.41 267.484 357.055C268.014 356.692 268.563 356.316 269.833 356.201C270.436 356.146 270.997 356.151 271.539 356.156C273.135 356.169 274.395 356.183 275.72 354.637C277.096 353.032 282.3 347.921 286.481 343.814C288.226 342.099 289.875 340.481 290.95 339.406C291.813 338.543 292.999 337.372 294.352 336.037C298.699 331.746 304.652 325.87 307.268 322.926C310.624 319.151 312.183 317.038 312.547 314.492C312.911 311.946 312.814 310.617 312.813 310.604C312.793 310.346 312.986 310.12 313.244 310.099C313.502 310.077 313.73 310.272 313.75 310.531C313.755 310.588 313.857 311.96 313.477 314.624C313.079 317.41 311.457 319.629 307.972 323.551C305.335 326.517 299.368 332.407 295.013 336.706C293.662 338.039 292.477 339.208 291.615 340.07C290.538 341.148 288.963 342.693 287.14 344.484C282.972 348.579 277.783 353.676 276.434 355.25C274.823 357.128 273.224 357.113 271.53 357.096C271.011 357.092 270.474 357.086 269.918 357.137C268.892 357.23 268.505 357.495 268.016 357.831C267.438 358.227 266.783 358.676 265.145 358.914C264.698 358.979 264.31 359.007 263.963 359.007Z" fill="#55C1E5"/>
<path d="M262.508 337.254C262.484 337.254 262.46 337.253 262.435 337.249C262.178 337.21 262.004 336.969 262.044 336.712C262.047 336.687 262.448 334.023 262.636 325.713C262.643 325.454 262.849 325.249 263.117 325.254C263.377 325.26 263.583 325.475 263.576 325.735C263.386 334.134 262.989 336.75 262.972 336.857C262.935 337.089 262.736 337.254 262.508 337.254Z" fill="#55C1E5"/>
<path d="M271.57 339.563C271.363 339.563 271.174 339.427 271.117 339.218C270.68 337.648 268.803 332.379 265.4 326.935C265.263 326.715 265.33 326.423 265.55 326.286C265.77 326.149 266.06 326.216 266.198 326.436C269.659 331.974 271.576 337.359 272.022 338.967C272.092 339.217 271.946 339.475 271.695 339.545C271.653 339.557 271.611 339.563 271.57 339.563Z" fill="#55C1E5"/>
<path d="M245.056 365.786C245.046 365.786 245.036 365.786 245.026 365.784C244.766 365.768 244.57 365.544 244.587 365.284C244.589 365.24 244.86 360.715 243.64 351.066C243.609 350.808 243.79 350.573 244.047 350.541C244.307 350.509 244.541 350.691 244.573 350.948C245.805 360.704 245.537 365.161 245.524 365.346C245.508 365.594 245.302 365.786 245.056 365.786Z" fill="#55C1E5"/>
<path d="M327.589 283.409C327.511 283.409 327.434 283.381 327.374 283.324C327.248 283.205 327.242 283.007 327.361 282.881C327.41 282.829 328.594 281.587 331.112 280.029C331.26 279.939 331.453 279.983 331.545 280.131C331.635 280.278 331.591 280.47 331.443 280.562C329.001 282.073 327.828 283.298 327.817 283.311C327.756 283.376 327.672 283.409 327.589 283.409Z" fill="#2B2F53"/>
<path d="M326.348 277.343C326.259 277.343 326.171 277.306 326.108 277.232L323.783 274.484C323.671 274.352 323.688 274.155 323.82 274.043C323.954 273.931 324.15 273.948 324.261 274.08L326.587 276.827C326.699 276.96 326.682 277.157 326.55 277.269C326.491 277.318 326.419 277.343 326.348 277.343Z" fill="#2B2F53"/>
<path d="M321.943 257.16L319.023 257.927L317.777 259.737L321.715 262.238L323.913 258.126L321.943 257.16Z" fill="#80B3E0"/>
<path d="M247.182 361.645C247.182 361.645 267.354 362.4 287.574 363.863C307.794 365.326 324.313 367.304 331.541 369.541C338.768 371.779 344.36 377.888 344.705 384.771C345.049 391.654 344.533 394.751 336.014 426.327C327.497 457.903 320.011 489.309 320.011 489.309L286.811 484.24C286.811 484.24 294.027 457.301 296.091 446.977C298.156 436.652 304.524 410.324 304.524 410.324C304.524 410.324 300.48 411.787 300.222 410.41C299.963 409.034 302.803 406.71 302.803 406.71C302.803 406.71 275.787 406.711 249.63 406.625C249.63 406.625 246.692 459.545 244.265 486.559C241.838 513.572 241.192 523.117 238.928 526.999C236.664 530.882 227.443 541.396 212.237 536.382C197.032 531.367 161.607 515.838 116.152 502.573C116.152 502.573 114.94 476.207 118.579 468.604C118.579 468.604 140.508 472.679 167.51 481.949C189.797 489.6 200.267 494.404 200.267 494.404C200.267 494.404 199.862 491.168 201.237 491.25C202.612 491.331 206.333 494.89 206.333 494.89C206.333 494.89 202.774 470.95 201.237 462.215C199.701 453.48 194.929 433.664 192.179 419.995C189.429 406.326 188.862 372.114 189.914 369.284C190.966 366.454 192.259 364.667 192.259 364.667H246.934L247.182 361.645Z" fill="#66CAF3"/>
<path d="M212.46 503.916C212.353 503.916 212.245 503.879 212.158 503.805C212.081 503.74 210.247 502.163 207.569 496.999C207.45 496.769 207.54 496.485 207.77 496.365C208.002 496.246 208.286 496.336 208.405 496.566C210.997 501.565 212.746 503.07 212.764 503.085C212.963 503.253 212.988 503.55 212.82 503.748C212.727 503.859 212.594 503.916 212.46 503.916Z" fill="#55C1E5"/>
<path d="M205.511 504.963C205.335 504.963 205.165 504.862 205.085 504.69C205.033 504.58 203.815 501.929 203.146 498.295C203.098 498.039 203.268 497.795 203.523 497.748C203.778 497.702 204.023 497.87 204.07 498.126C204.718 501.636 205.926 504.268 205.939 504.295C206.048 504.53 205.945 504.809 205.71 504.918C205.646 504.947 205.578 504.963 205.511 504.963Z" fill="#55C1E5"/>
<path d="M246.539 388.646C245.993 388.646 245.899 388.275 245.767 385.592C245.688 384.001 245.626 381.852 245.559 379.579C245.454 375.907 245.334 371.745 245.119 369.468C245.095 369.21 245.285 368.98 245.543 368.956C245.804 368.929 246.03 369.122 246.054 369.38C246.272 371.688 246.387 375.686 246.499 379.553C246.587 382.581 246.685 385.942 246.822 387.33C247.578 386.443 248.898 384.426 248.907 383.93C248.831 383.171 248.372 370.001 248.353 369.44C248.344 369.181 248.547 368.963 248.807 368.954C249.074 368.939 249.284 369.148 249.293 369.407C249.457 374.143 249.785 383.255 249.843 383.846C249.935 384.758 248.086 387.331 247.429 388.056C247.045 388.48 246.796 388.646 246.539 388.646Z" fill="#55C1E5"/>
<path d="M233.781 407.207C233.671 407.207 233.56 407.169 233.471 407.09C233.276 406.918 233.257 406.621 233.429 406.426C241.135 397.673 257 385.402 258.939 384.689C259.369 384.53 259.59 384.778 259.647 384.858C260.003 385.354 259.743 385.83 255.361 391.28C253.336 393.8 250.353 397.509 249.853 398.658C250.554 398.577 252.374 397.478 254.042 396.095C254.241 395.93 254.539 395.957 254.704 396.157C254.87 396.357 254.842 396.653 254.642 396.819C253.39 397.857 250.346 400.189 249.125 399.425C248.979 399.333 248.881 399.185 248.851 399.006C248.716 398.208 250.176 396.23 254.628 390.691C255.844 389.179 257.26 387.419 258.095 386.271C253.958 389.054 240.946 399.31 234.135 407.048C234.042 407.154 233.911 407.207 233.781 407.207Z" fill="#55C1E5"/>
<path d="M249.631 407.099C249.623 407.099 249.615 407.097 249.607 407.097C249.347 407.085 249.149 406.863 249.162 406.604C249.168 406.482 249.775 394.399 249.401 388.875C249.383 388.615 249.579 388.392 249.838 388.375C250.095 388.353 250.321 388.551 250.338 388.811C250.716 394.39 250.107 406.53 250.1 406.652C250.088 406.904 249.879 407.099 249.631 407.099Z" fill="#55C1E5"/>
<path d="M305.742 405.779C305.524 405.779 305.329 405.625 305.283 405.403C305.231 405.148 305.395 404.9 305.649 404.848C309.733 404.014 316.043 401.012 316.107 400.981C316.341 400.869 316.622 400.97 316.734 401.204C316.846 401.438 316.745 401.718 316.511 401.83C316.249 401.956 310.034 404.911 305.838 405.769C305.806 405.776 305.774 405.779 305.742 405.779Z" fill="#55C1E5"/>
<path d="M306.791 410.442C306.545 410.442 306.339 410.252 306.322 410.003C306.305 409.744 306.5 409.521 306.76 409.504C311.024 409.22 315.627 409.501 315.673 409.504C315.932 409.52 316.13 409.743 316.113 410.002C316.096 410.262 315.874 410.456 315.614 410.441C315.569 410.439 311.025 410.16 306.822 410.441C306.812 410.441 306.801 410.442 306.791 410.442Z" fill="#55C1E5"/>
<path d="M310.848 495.176C310.848 495.176 322.306 501.639 326.779 503.828C331.253 506.017 350.29 512.013 346.959 524.292C346.959 524.292 340.296 524.578 327.731 523.531C315.166 522.484 305.458 519.914 300.698 518.867C295.939 517.82 294.702 518.868 295.178 520.866C295.178 520.866 281.186 519.818 277.568 518.867C277.568 518.867 278.478 503.301 281.831 497.282C281.831 497.282 293.854 504.779 312.458 508.586C312.458 508.586 309.456 506.207 308.123 504.589C306.79 502.971 306.338 497.851 310.848 495.176Z" fill="#505C7B"/>
<path d="M115.197 488.597C113.565 490.774 111.569 493.857 111.206 495.671C110.844 497.485 109.755 503.248 110.208 504.492C110.661 505.736 113.201 508.639 114.652 509.274C116.104 509.908 119.912 514.896 118.28 518.704C116.648 522.513 112.022 520.971 106.49 519.702C100.958 518.432 96.7882 517.253 93.523 513.807C90.2577 510.361 90.9828 508.185 90.6203 500.024C90.2577 491.863 90.3481 487.599 90.0759 485.604C89.8036 483.61 87.3563 483.61 87.3563 483.61C87.3563 483.61 85.7231 467.195 89.7133 463.477C89.7133 463.477 102.138 463.658 105.584 464.383C109.03 465.109 113.956 466.832 113.956 466.832C113.956 466.832 107.124 469.825 106.127 486.421C106.127 486.421 108.031 484.697 109.211 485.06C110.39 485.422 115.197 488.597 115.197 488.597Z" fill="#505C7B"/>
<path d="M230.525 306.089L222.216 300.745C220.809 290.137 218.497 280.451 215.34 270.186L221.133 274.844L222.385 271.295C222.385 271.295 227.746 280.881 230.525 306.089Z" fill="#66CAF3"/>
<path d="M232.151 340.064C232.116 349.061 231.767 359.089 230.988 370.234L223.456 370.031C223.456 370.031 224.986 355.558 224.672 335.412C227.858 337.661 230.294 339.129 232.151 340.064Z" fill="#66CAF3"/>
<path d="M462.476 500.124C462.275 505.75 463.78 507.555 463.78 507.555C460.969 515.09 449.62 531.059 447.009 532.162C444.397 533.268 435.96 531.259 435.96 531.259C443.996 517.298 450.021 504.243 450.121 502.434C450.222 500.625 450.22 493.094 449.017 479.033C448.057 467.852 445.436 453.686 444.401 448.351C444.783 448.529 445.136 448.707 445.447 448.856C447.054 449.636 451.871 451.321 453.683 446.831C455.494 442.337 456.521 439.461 460.933 439.895C463.66 440.163 465.423 440.658 466.821 440.454C466.591 447.963 465.601 460.838 464.385 471.197C462.778 484.856 462.677 494.502 462.476 500.124Z" fill="#FBC89F"/>
<path d="M541.359 492.892C539.864 494.751 540.298 501.931 539.165 508.59C537.169 520.311 532.898 524.719 529.762 526.6C523.691 530.242 518.076 529.171 518.076 529.171C525.511 507.213 524.63 494.982 524.284 492.659C523.934 490.336 521.611 486.27 514.293 475.814C507.577 466.218 492.246 447.031 484.633 437.483C485.203 437.38 485.817 437.098 486.425 436.513C488.515 434.504 488.945 431.724 491.074 430.741C493.2 429.76 494.261 431.225 495.994 431.384C497.728 431.539 499.346 427.854 501.786 427.68C505.438 427.418 506.733 429.826 507.94 429.285C511.964 435.461 518.029 448.217 520.987 454.454C524.42 461.701 535.16 483.946 537.386 487.379C539.609 490.812 541.359 492.892 541.359 492.892Z" fill="#FBC89F"/>
<path d="M434.794 451.552C434.766 451.552 434.737 451.548 434.708 451.541C433.745 451.265 433.328 449.566 432.885 447.768C432.57 446.486 432.213 445.033 431.717 444.66C431.093 444.192 430.237 444.517 429.153 444.929C428.414 445.21 427.576 445.528 426.683 445.614C424.076 445.867 422.895 443.879 422.002 441.691C421.128 439.552 418.789 436.097 415.576 436.733C414.062 437.031 412.767 437.853 411.514 438.646C410.187 439.487 408.936 440.282 407.59 440.311C405.631 440.347 404.324 439.123 403.707 436.658C403.543 436.004 403.111 434.278 402.782 434.192C402.657 434.38 402.604 435.202 402.568 435.753C402.48 437.101 402.398 438.374 401.636 438.615C401.426 438.681 401.094 438.691 400.7 438.36C399.772 437.582 398.952 435.254 399.13 433.914C399.313 432.543 401.179 429.777 402.983 427.099C403.356 426.546 403.723 426.001 404.065 425.484C405.963 422.611 406.837 420.209 406.846 420.185C406.87 420.12 406.913 420.064 406.971 420.027C409.02 418.709 417.102 416.483 424.028 419.044C425.934 419.747 428.002 420.823 430.192 421.963C435.716 424.836 442.59 428.411 450.788 427.89C455.781 427.572 462.617 424.877 469.852 422.023C479.328 418.284 490.07 414.048 499.959 413.676C500.136 413.655 500.277 413.804 500.283 413.977C500.29 414.15 500.155 414.295 499.982 414.302C490.199 414.67 479.511 418.886 470.082 422.605C462.483 425.603 455.92 428.192 450.828 428.516C442.456 429.048 435.496 425.428 429.903 422.519C427.731 421.389 425.679 420.322 423.811 419.631C417.185 417.183 409.503 419.224 407.397 420.499C407.207 420.999 406.328 423.194 404.588 425.828C404.245 426.347 403.877 426.894 403.503 427.449C401.822 429.945 399.914 432.772 399.751 433.997C399.601 435.129 400.333 437.233 401.103 437.879C401.201 437.961 401.338 438.05 401.448 438.018C401.8 437.906 401.893 436.479 401.942 435.713C402.024 434.46 402.087 433.796 402.525 433.614C402.704 433.539 402.891 433.546 403.066 433.633C403.629 433.917 403.938 435.002 404.315 436.506C404.858 438.679 405.921 439.722 407.576 439.684C408.748 439.66 409.928 438.911 411.178 438.117C412.419 437.331 413.825 436.438 415.455 436.118C419.074 435.405 421.637 439.139 422.582 441.455C423.706 444.21 424.801 445.167 426.622 444.991C427.431 444.912 428.194 444.622 428.93 444.342C430.094 443.901 431.192 443.484 432.093 444.159C432.768 444.665 433.12 446.099 433.494 447.618C433.839 449.019 434.268 450.762 434.881 450.938C435.047 450.986 435.143 451.159 435.096 451.326C435.056 451.463 434.93 451.552 434.794 451.552Z" fill="#EE5F80"/>
<path d="M450.292 452.154C448.518 452.154 446.864 451.439 446.28 451.157L445.967 451.004C444.609 450.336 442.557 449.329 441.281 450.245C439.883 451.248 438.298 452.388 436.194 451.992C436.024 451.961 435.912 451.797 435.944 451.626C435.976 451.456 436.138 451.345 436.31 451.377C438.016 451.696 439.294 450.897 440.915 449.735C442.496 448.6 444.751 449.708 446.243 450.441L446.554 450.592C447.079 450.846 449.814 452.076 452.005 451.23C453.064 450.822 453.856 449.98 454.361 448.73L454.513 448.353C456.256 444.02 457.411 441.16 461.932 441.601C462.934 441.699 463.804 441.828 464.574 441.941C467.188 442.326 468.502 442.52 469.854 440.885C470.151 440.528 470.438 440.162 470.719 439.803C472.279 437.813 473.752 435.935 475.584 437.119C477.384 438.282 480.737 439.173 482.36 438.584C482.466 438.545 482.584 438.568 482.671 438.64C482.747 438.705 484.574 440.2 486.427 438.416C487.278 437.598 487.931 436.595 488.563 435.626C489.465 434.242 490.318 432.935 491.635 432.327C493.129 431.637 494.298 432.135 495.331 432.574C495.893 432.813 496.425 433.038 496.995 433.091C497.665 433.158 498.428 432.387 499.231 431.578C500.218 430.582 501.336 429.454 502.743 429.386C504.217 429.316 505.176 430.024 505.948 430.594C506.523 431.018 507.026 431.386 507.588 431.355C508.162 431.326 508.808 430.482 509.556 429.503C510.492 428.281 511.655 426.758 513.339 425.949C513.495 425.873 513.682 425.941 513.757 426.096C513.832 426.252 513.766 426.439 513.61 426.514C512.062 427.258 510.949 428.715 510.053 429.885C509.175 431.032 508.483 431.938 507.62 431.983C506.839 432.022 506.219 431.574 505.576 431.099C504.812 430.535 504.026 429.949 502.772 430.012C501.61 430.068 500.628 431.06 499.676 432.019C498.767 432.937 497.908 433.799 496.938 433.715C496.27 433.654 495.668 433.398 495.086 433.15C494.086 432.725 493.141 432.322 491.897 432.897C490.744 433.429 489.939 434.663 489.088 435.969C488.437 436.968 487.763 438.002 486.861 438.869C484.924 440.733 482.954 439.606 482.411 439.228C480.552 439.78 477.149 438.876 475.245 437.646C473.955 436.814 472.874 438.07 471.213 440.19C470.928 440.553 470.638 440.923 470.337 441.286C468.76 443.193 467.15 442.955 464.482 442.562C463.721 442.45 462.857 442.321 461.87 442.225C457.812 441.828 456.791 444.372 455.094 448.587L454.942 448.965C454.37 450.383 453.458 451.342 452.231 451.816C451.598 452.06 450.937 452.154 450.292 452.154Z" fill="#EE5F80"/>
<path d="M514.94 426.547C514.905 426.547 514.869 426.54 514.833 426.528C514.671 426.469 514.587 426.29 514.645 426.127C514.905 425.41 514.08 424.926 512.693 424.216C512.26 423.995 511.814 423.766 511.407 423.512C509.664 422.423 505.632 419.087 501.595 415.049C501.472 414.927 501.472 414.727 501.595 414.605C501.717 414.483 501.916 414.483 502.038 414.605C506.044 418.61 510.025 421.91 511.739 422.981C512.123 423.222 512.558 423.443 512.978 423.658C514.316 424.342 515.701 425.051 515.235 426.339C515.19 426.467 515.069 426.547 514.94 426.547Z" fill="#EE5F80"/>
<path d="M514.76 425.52C514.658 425.52 514.558 425.47 514.498 425.379C514.403 425.235 514.442 425.04 514.587 424.945C515.65 424.243 516.169 423.487 516.13 422.698C516.073 421.566 514.847 420.316 512.679 419.178C509.493 417.505 507.686 416.468 504.636 412.97C504.523 412.84 504.537 412.643 504.667 412.529C504.796 412.416 504.995 412.427 505.109 412.558C508.086 415.972 509.851 416.986 512.97 418.623C515.377 419.886 516.686 421.284 516.756 422.667C516.807 423.692 516.195 424.634 514.933 425.468C514.88 425.503 514.82 425.52 514.76 425.52Z" fill="#EE5F80"/>
<path d="M402.645 434.216C402.574 434.216 402.502 434.192 402.443 434.142C402.311 434.03 402.294 433.833 402.406 433.701C406.09 429.334 410.326 423.459 411.164 420.07C411.205 419.902 411.374 419.8 411.543 419.841C411.711 419.883 411.814 420.053 411.772 420.221C410.656 424.731 404.173 432.578 402.885 434.104C402.822 434.178 402.734 434.216 402.645 434.216Z" fill="#EE5F80"/>
<path d="M415.143 434.982C415.101 434.982 415.058 434.973 415.017 434.955C414.859 434.885 414.786 434.701 414.856 434.542C417.798 427.84 419.881 419.488 419.902 419.404C419.942 419.236 420.113 419.134 420.281 419.175C420.449 419.217 420.552 419.387 420.51 419.555C420.489 419.639 418.396 428.042 415.431 434.795C415.378 434.912 415.264 434.982 415.143 434.982Z" fill="#EE5F80"/>
<path d="M423.651 437.556C423.638 437.556 423.625 437.555 423.613 437.553C423.441 437.532 423.319 437.375 423.34 437.204C423.471 436.154 424.456 432.934 425.5 429.525C426.454 426.408 427.441 423.185 427.701 421.829C427.733 421.659 427.897 421.548 428.067 421.58C428.238 421.611 428.348 421.776 428.316 421.946C428.051 423.336 427.058 426.575 426.099 429.708C425.11 432.941 424.087 436.285 423.962 437.281C423.942 437.44 423.806 437.556 423.651 437.556Z" fill="#EE5F80"/>
<path d="M429.543 438.551C429.535 438.551 429.529 438.551 429.521 438.551C429.348 438.54 429.219 438.39 429.23 438.217C429.239 438.094 430.061 425.989 430.142 423.164C430.147 422.991 430.302 422.852 430.465 422.86C430.638 422.865 430.774 423.01 430.769 423.183C430.687 426.019 429.865 438.136 429.856 438.259C429.845 438.424 429.706 438.551 429.543 438.551Z" fill="#EE5F80"/>
<path d="M433.568 441.249C433.511 441.249 433.453 441.233 433.4 441.2C433.254 441.107 433.211 440.914 433.304 440.768C434.001 439.669 434.67 433.802 435.114 429.92C435.333 428.001 435.506 426.484 435.629 425.964C435.668 425.796 435.839 425.691 436.007 425.731C436.175 425.771 436.28 425.94 436.24 426.108C436.125 426.593 435.944 428.167 435.736 429.991C435.141 435.204 434.548 439.975 433.833 441.102C433.773 441.196 433.673 441.249 433.568 441.249Z" fill="#EE5F80"/>
<path d="M442.2 445.938C442.04 445.938 441.903 445.818 441.888 445.655C441.381 440.386 442.414 432.318 443.445 431.23C443.607 431.061 443.762 431.031 443.874 431.036C444.011 431.042 444.136 431.108 444.247 431.232C445.329 432.444 446.345 442.379 446.165 444.942C446.152 445.115 446.009 445.246 445.83 445.232C445.657 445.221 445.527 445.071 445.54 444.898C445.754 441.864 444.567 432.836 443.841 431.724C443.108 432.683 441.998 440.239 442.513 445.595C442.529 445.767 442.402 445.921 442.23 445.937C442.22 445.938 442.21 445.938 442.2 445.938Z" fill="#EE5F80"/>
<path d="M453.821 443.904C453.666 443.904 453.531 443.79 453.511 443.632C453.23 441.478 453.321 431.187 453.343 429.145C453.344 428.973 453.484 428.836 453.656 428.836H453.66C453.833 428.837 453.97 428.98 453.969 429.153C453.947 431.187 453.858 441.439 454.133 443.55C454.156 443.722 454.034 443.879 453.862 443.902C453.848 443.903 453.835 443.904 453.821 443.904Z" fill="#EE5F80"/>
<path d="M465.026 440.169C464.883 440.169 464.755 440.071 464.722 439.926C464.648 439.604 464.421 439.011 464.11 438.191C463.438 436.424 462.314 433.466 461.319 429.514C461.277 429.346 461.379 429.176 461.547 429.134C461.715 429.093 461.885 429.194 461.927 429.362C462.913 433.278 464.03 436.214 464.696 437.968C465.028 438.843 465.248 439.421 465.332 439.784C465.372 439.954 465.266 440.122 465.097 440.161C465.073 440.166 465.049 440.169 465.026 440.169Z" fill="#EE5F80"/>
<path d="M474.031 435.48C473.942 435.48 473.855 435.443 473.792 435.37C473.192 434.657 468.026 427.376 467.502 425.326C467.459 425.158 467.561 424.989 467.729 424.946C467.896 424.902 468.067 425.003 468.11 425.171C468.583 427.025 473.528 434.084 474.27 434.965C474.382 435.097 474.366 435.295 474.234 435.407C474.175 435.456 474.103 435.48 474.031 435.48Z" fill="#EE5F80"/>
<path d="M482.975 434.323C480.914 434.323 478.26 430.627 476.336 427.4C476.247 427.251 476.295 427.059 476.444 426.97C476.593 426.881 476.785 426.931 476.874 427.079C479.551 431.57 481.931 434.031 483.243 433.661C483.263 433.656 483.29 433.647 483.318 433.582C483.731 432.595 481.567 428.013 480.107 425.357C480.023 425.206 480.079 425.014 480.231 424.931C480.382 424.848 480.573 424.903 480.655 425.056C481.31 426.246 484.546 432.268 483.895 433.824C483.801 434.049 483.634 434.201 483.413 434.264C483.271 434.304 483.124 434.323 482.975 434.323Z" fill="#EE5F80"/>
<path d="M492.084 429.922C492.026 429.922 491.968 429.907 491.916 429.874C490.412 428.916 484.307 422.886 482.506 419.121C482.431 418.965 482.497 418.778 482.653 418.703C482.81 418.628 482.995 418.694 483.07 418.85C484.828 422.526 490.785 428.411 492.252 429.344C492.398 429.437 492.441 429.631 492.348 429.777C492.289 429.871 492.187 429.922 492.084 429.922Z" fill="#EE5F80"/>
<path d="M502.876 427.179C502.783 427.179 502.691 427.138 502.629 427.059C502.506 426.903 502.193 426.541 501.76 426.038C500.032 424.033 496.436 419.861 494.149 416.414C494.053 416.27 494.093 416.076 494.237 415.98C494.38 415.884 494.575 415.924 494.67 416.068C496.936 419.482 500.515 423.633 502.235 425.628C502.672 426.137 502.989 426.504 503.121 426.67C503.228 426.806 503.207 427.005 503.071 427.112C503.013 427.157 502.943 427.179 502.876 427.179Z" fill="#EE5F80"/>
<path d="M517.472 528.21C518.685 526.858 521.119 528.469 525.947 526.516C530.776 524.564 535.001 519.186 536.53 512.697C539.047 502.012 537.609 494.665 540.274 491.512C540.274 491.512 541.256 491.378 544.235 497.799C547.214 504.22 547.883 506.892 549.218 511.412C550.554 515.933 552.403 522.458 552.557 523.177C552.711 523.896 551.479 525.077 550.708 524.667C549.937 524.256 548.294 514.187 547.112 512.337C545.93 510.488 544.749 509.255 542.899 513.262C541.05 517.269 535.913 528.983 533.91 531.037C531.906 533.091 519.63 539.718 516.187 539.718C514.801 539.718 513.092 538.69 512.996 537.561C512.899 536.431 513.414 532.731 517.472 528.21Z" fill="#505C7B"/>
<path d="M443.97 530.364C446.647 530.627 446.78 529.876 452.401 522.79C458.022 515.703 462.887 505.338 462.887 505.338C462.887 505.338 464.191 506.113 464.374 509.411C464.558 512.709 465.168 517.842 464.374 522.301C463.581 526.761 464.13 537.513 464.008 538.246C463.886 538.978 461.748 538.856 461.687 538.246C461.626 537.635 461.626 523.767 460.403 521.323C460.403 521.323 458.327 524.316 456.067 528.043C453.807 531.77 452.279 535.435 450.202 536.962C448.125 538.49 429.37 539.896 428.087 538.49C426.803 537.084 433.138 530.883 436.978 529.474C436.978 529.474 438.349 529.815 443.97 530.364Z" fill="#505C7B"/>
<path d="M464.026 206.955C464.065 206.128 464.777 207.985 464.026 206.955V206.955Z" fill="#EE5F80"/>
<path d="M503.675 415.907C503.675 415.907 489.848 416.352 474.851 423.043C459.867 429.721 450.95 431.324 442.949 429.594C435.483 427.978 429.314 422.56 422.521 420.728C415.729 418.896 408.16 422.064 408.16 422.064C408.16 422.064 409.203 394.843 409.852 365.511C410.501 336.178 413.515 310.942 415.347 296.492C417.191 282.042 420.651 257.912 421.771 248.118C422.152 244.785 422.419 242.61 422.483 240.829C427.316 236.822 437.849 231.785 474.101 244.747C474.749 246.846 476.174 249.988 478.871 255.839C486.236 271.828 493.321 296.492 493.537 312.888C493.753 329.271 495.368 361.084 497.315 376.831C499.248 392.579 503.675 415.907 503.675 415.907Z" fill="#EE5F80"/>
<path d="M416.396 138.339C416.061 134.657 416.333 134.051 416.828 133.83C417.322 133.609 419.043 134.926 419.836 136.904C420.629 138.882 431.867 154.234 431.867 154.234C431.867 154.234 431.047 157.005 431.379 158.873C431.711 160.741 433.004 162.758 430.292 166.516C428.854 168.509 427.746 169.547 426.671 171.48C425.538 173.516 421.842 184.497 419.338 192.138C417.133 198.87 414.403 213.536 411.211 219.879C408.019 226.223 402.708 228.152 401.556 228.409C400.404 228.667 399.062 230.078 397.139 228.8C395.216 227.522 395.15 225.794 395.34 224.77C395.531 223.745 394.89 223.297 393.733 220.034C392.575 216.77 391.995 214.302 394.867 208.554C397.739 202.805 403.872 193.639 406.745 188.641C409.618 183.643 417.982 168.712 417.979 166.535C417.976 164.842 416.476 148.587 415.798 141.694C415.589 139.561 415.629 138.163 416.396 138.339Z" fill="#FBC89F"/>
<path d="M424.536 167.506C424.512 167.506 424.489 167.502 424.465 167.497C424.296 167.458 424.191 167.29 424.23 167.121C425.327 162.39 424.324 158.213 421.074 153.977C420.968 153.84 420.995 153.644 421.132 153.539C421.269 153.434 421.468 153.459 421.572 153.596C424.945 157.993 425.983 162.336 424.841 167.263C424.808 167.408 424.679 167.506 424.536 167.506Z" fill="#2B2F53"/>
<path d="M428.855 156.981C428.734 156.982 428.619 156.912 428.567 156.795C427.127 153.546 425.602 150.129 425.602 150.129C425.532 149.971 425.603 149.784 425.76 149.714C425.918 149.644 426.104 149.715 426.174 149.872C426.174 149.872 427.699 153.292 429.14 156.541C429.211 156.698 429.14 156.884 428.982 156.954C428.941 156.972 428.897 156.981 428.855 156.981Z" fill="#2B2F53"/>
<path d="M419.089 149.727C418.971 149.727 418.859 149.661 418.805 149.548C418.731 149.391 418.798 149.204 418.955 149.13C421.323 148.012 425.237 148.282 425.401 148.295C425.574 148.307 425.704 148.457 425.692 148.63C425.679 148.803 425.527 148.932 425.356 148.92C425.318 148.918 421.441 148.651 419.223 149.697C419.18 149.717 419.134 149.726 419.089 149.727Z" fill="#2B2F53"/>
<path d="M419.357 148.273C419.199 148.273 419.062 148.154 419.045 147.994C419.04 147.941 418.477 142.76 418.29 141.289C418.093 139.735 417.676 138.75 416.207 138.639C416.034 138.626 415.905 138.476 415.917 138.303C415.93 138.13 416.082 138.002 416.254 138.014C418.259 138.165 418.723 139.715 418.912 141.21C419.099 142.687 419.663 147.873 419.668 147.925C419.686 148.097 419.562 148.252 419.39 148.27C419.379 148.272 419.369 148.273 419.357 148.273Z" fill="#2B2F53"/>
<path d="M417.354 129.564C416.536 129.25 415.019 126.893 414.24 123.555C412.083 114.307 412.692 107.141 414.999 103.584C417.306 100.026 424.237 93.5165 434.788 95.4857C444.38 97.2757 446.706 104.718 446.706 104.718C446.706 104.718 449.809 104.666 451.051 104.778C452.293 104.889 458.22 108.709 458.677 112.288C459.134 115.868 458.242 123.092 458.699 126.701C459.156 130.311 462.948 137.634 468.139 139.043C474.121 140.667 487.507 137.642 492.347 142.839C496.021 146.782 498.462 156.708 500.613 161.612C502.764 166.516 506.384 172.886 513.439 175.357C520.495 177.827 527.828 177.083 531.095 174.145C531.095 174.145 532.456 178.544 530.77 182.157C529.083 185.769 522.429 188.825 510.928 192.961C499.427 197.098 494.804 199.643 495.322 206.187C495.84 212.73 501.15 217.629 495.012 224.183C488.873 230.737 475.609 226.414 473.296 225.797L477.848 214.619C477.848 214.619 478.643 218.342 479.657 217.551C480.671 216.759 479.702 210.216 479.702 210.216C479.702 210.216 484.84 212.013 486.975 206.82C489.11 201.627 489.752 179.512 489.523 176.58C489.293 173.647 486.189 165.058 476.022 165.261C467.377 165.433 457.402 162.695 457.402 162.695L446.142 141.097L417.354 129.564Z" fill="#DC6637"/>
<path d="M417.354 129.561C412.501 134.723 403.294 143.394 402.412 148.329C401.529 153.264 401.225 156.684 402.994 159.007C407.241 164.581 411.57 163.018 408.836 173.215C408.836 173.215 414.241 166.247 416.163 165.944C418.084 165.641 422.467 166.475 422.467 166.475L438.614 167.411C438.614 167.411 437.241 139.732 436.888 139.432C436.535 139.133 417.354 129.561 417.354 129.561Z" fill="#DC6637"/>
<path d="M531.095 174.456C531.079 174.456 531.064 174.455 531.047 174.452C530.943 174.436 530.855 174.37 530.81 174.274C528.955 170.25 528.374 166.616 529.292 164.789C529.584 164.208 530.023 163.841 530.562 163.729C531.341 163.565 532.228 164.17 532.879 165.309C534.163 167.555 534.18 171.223 531.327 174.354C531.267 174.419 531.183 174.456 531.095 174.456ZM530.818 164.329C530.774 164.329 530.732 164.332 530.692 164.341C530.341 164.416 530.056 164.66 529.851 165.07C529.247 166.272 529.252 169.2 531.179 173.568C533.503 170.756 533.457 167.583 532.335 165.62C531.881 164.826 531.288 164.328 530.818 164.329Z" fill="#DC6637"/>
<path d="M452.922 119.971C452.848 119.971 452.776 119.946 452.716 119.894C452.586 119.78 452.572 119.581 452.686 119.451C456.022 115.629 456.973 111.522 456.776 109.167C456.762 108.994 456.89 108.842 457.063 108.828C457.238 108.813 457.386 108.942 457.4 109.114C457.608 111.591 456.622 115.895 453.159 119.864C453.096 119.935 453.01 119.971 452.922 119.971Z" fill="#DC6637"/>
<path d="M455.272 120.891C455.18 120.891 455.09 120.852 455.027 120.775C454.918 120.641 454.938 120.444 455.073 120.334C457.1 118.681 458.317 116.929 458.499 115.397C458.519 115.225 458.673 115.103 458.847 115.123C459.019 115.143 459.141 115.299 459.121 115.471C458.849 117.756 456.716 119.804 455.469 120.821C455.41 120.868 455.34 120.891 455.272 120.891Z" fill="#DC6637"/>
<path d="M460.473 124.107C460.134 124.107 459.786 124.092 459.426 124.062C453.258 123.543 450.655 116.751 448.755 111.792C446.946 107.073 445.253 106.94 443.061 107.268C442.889 107.294 442.731 107.175 442.705 107.004C442.68 106.833 442.796 106.673 442.968 106.648C445.289 106.301 447.371 106.432 449.34 111.567C451.639 117.566 454.144 122.989 459.478 123.438C465.679 123.96 468.277 119.416 468.302 119.37C468.386 119.219 468.576 119.164 468.728 119.249C468.879 119.332 468.933 119.523 468.849 119.675C468.824 119.722 466.317 124.097 460.473 124.107Z" fill="#DC6637"/>
<path d="M451.624 128.973C450.822 128.975 450.075 128.859 449.454 128.594C445.632 126.965 442.875 122.014 441.932 118.103C441.75 117.349 441.604 116.62 441.462 115.916C440.86 112.934 440.386 110.578 437.884 109.159C437.734 109.074 437.682 108.882 437.767 108.732C437.852 108.582 438.044 108.529 438.194 108.614C440.944 110.175 441.468 112.778 442.076 115.793C442.217 116.491 442.362 117.213 442.541 117.956C443.478 121.839 446.238 126.542 449.7 128.017C452.176 129.073 457.052 127.47 458.363 125.629C458.463 125.488 458.66 125.456 458.8 125.556C458.941 125.656 458.974 125.852 458.873 125.993C457.744 127.58 454.366 128.969 451.624 128.973Z" fill="#DC6637"/>
<path d="M439.529 106.458C439.379 106.459 439.245 106.349 439.219 106.197C438.16 99.902 431.454 96.0583 423.285 97.0568C423.112 97.0787 422.956 96.9556 422.936 96.7839C422.915 96.6122 423.037 96.4555 423.209 96.4349C431.729 95.3939 438.72 99.4559 439.837 106.093C439.865 106.263 439.751 106.426 439.581 106.454C439.563 106.457 439.545 106.458 439.529 106.458Z" fill="#DC6637"/>
<path d="M418.631 116.478C418.503 116.478 418.384 116.399 418.336 116.273C417.767 114.743 416.076 109.452 418.237 105.641C419.323 103.726 421.197 102.511 423.805 102.028C430.49 100.793 434.38 108.709 434.418 108.789C434.493 108.945 434.429 109.133 434.273 109.208C434.116 109.283 433.929 109.216 433.854 109.061C433.817 108.986 430.124 101.497 423.92 102.644C421.501 103.09 419.774 104.204 418.783 105.95C416.755 109.525 418.378 114.588 418.924 116.055C418.984 116.218 418.901 116.398 418.739 116.458C418.703 116.471 418.666 116.478 418.631 116.478Z" fill="#DC6637"/>
<path d="M421.676 112.218C421.521 112.218 421.387 112.104 421.365 111.946C421.048 109.643 421.848 106.874 423.402 104.891C424.584 103.382 426.049 102.496 427.641 102.328C427.816 102.309 427.968 102.436 427.986 102.607C428.005 102.779 427.879 102.933 427.707 102.951C425.914 103.14 424.645 104.321 423.895 105.277C422.44 107.134 421.692 109.719 421.987 111.861C422.01 112.033 421.891 112.191 421.719 112.214C421.705 112.217 421.69 112.218 421.676 112.218Z" fill="#DC6637"/>
<path d="M426.076 109.495C426.069 109.495 426.062 109.494 426.055 109.494C425.882 109.483 425.751 109.334 425.762 109.161C425.874 107.39 426.763 105.629 428.143 104.447C428.832 103.856 429.52 103.527 429.996 103.572C430.167 103.588 430.296 103.741 430.28 103.912C430.264 104.084 430.11 104.21 429.939 104.195C429.704 104.175 429.171 104.392 428.552 104.922C428.082 105.324 426.537 106.822 426.387 109.201C426.377 109.366 426.24 109.495 426.076 109.495Z" fill="#DC6637"/>
<path d="M496.406 150.504C496.279 150.504 496.159 150.425 496.112 150.298C494.478 145.873 490.283 143.486 486.902 142.725C484.873 142.269 479.679 142.579 474.658 142.879C471.41 143.074 468.049 143.275 465.435 143.28L465.43 143.28C459.728 143.289 455.468 139.973 452.407 133.142C452.336 132.985 452.408 132.799 452.565 132.729C452.723 132.657 452.909 132.728 452.979 132.886C455.928 139.466 460 142.661 465.429 142.653C465.429 142.653 465.432 142.653 465.434 142.653C468.031 142.648 471.381 142.447 474.62 142.253C479.918 141.936 484.924 141.637 487.04 142.113C490.582 142.909 494.98 145.421 496.699 150.081C496.759 150.244 496.677 150.423 496.514 150.483C496.478 150.496 496.442 150.504 496.406 150.504Z" fill="#DC6637"/>
<path d="M513.434 190.961C509.403 190.967 504.159 189.75 498.709 185.139C492.397 179.797 491.845 173.872 491.311 168.141C490.904 163.757 490.517 159.615 487.496 156.099C483.647 151.62 474.735 151.164 467.574 150.796C466.13 150.722 464.767 150.653 463.505 150.554C455.705 149.948 453.415 143.465 451.232 135.051C451.189 134.884 451.289 134.713 451.457 134.669C451.625 134.627 451.795 134.726 451.839 134.894C454.028 143.335 456.152 149.355 463.553 149.93C464.808 150.027 466.166 150.096 467.606 150.17C474.886 150.543 483.946 151.009 487.971 155.691C491.122 159.358 491.518 163.597 491.936 168.084C492.458 173.689 492.996 179.485 499.114 184.661C510.333 194.153 520.584 188.889 520.686 188.835C520.84 188.754 521.029 188.813 521.11 188.966C521.191 189.118 521.133 189.308 520.981 189.389C520.925 189.419 517.938 190.954 513.434 190.961Z" fill="#DC6637"/>
<path d="M482.563 219.043C482.264 219.044 481.958 219.041 481.644 219.033C481.471 219.03 481.335 218.886 481.338 218.713C481.343 218.54 481.479 218.395 481.66 218.406C486.304 218.514 489.316 217.716 490.86 215.96C492.78 213.777 492.421 210.233 491.799 206.167C491.701 205.532 491.556 204.69 491.389 203.716C491.072 201.871 490.677 199.576 490.281 196.854C490.256 196.682 490.374 196.523 490.546 196.499C490.72 196.473 490.877 196.592 490.901 196.764C491.296 199.477 491.692 201.769 492.007 203.611C492.175 204.589 492.321 205.432 492.418 206.071C493.065 210.296 493.43 213.988 491.331 216.374C489.743 218.181 486.943 219.037 482.563 219.043Z" fill="#DC6637"/>
<path d="M414.747 165.833C414.584 165.833 414.445 165.706 414.433 165.541C414.199 162.255 413.814 161.699 411.759 160.043C411.003 159.435 410.376 158.478 409.981 157.441C409.918 157.432 409.852 157.421 409.786 157.408C408.956 157.249 408.315 156.782 407.88 156.021C406.488 153.585 407.492 148.515 408.775 144.914C409.671 142.401 411.888 140.102 414.235 137.669C416.926 134.879 419.709 131.993 420.586 128.631C420.629 128.464 420.802 128.363 420.968 128.407C421.136 128.451 421.237 128.622 421.193 128.79C420.275 132.311 417.434 135.256 414.687 138.104C412.388 140.488 410.215 142.739 409.366 145.124C408.368 147.923 407.047 153.301 408.424 155.71C408.743 156.268 409.181 156.612 409.759 156.76C409.536 155.946 409.464 155.119 409.589 154.402C409.756 153.436 410.26 152.781 411.047 152.509C411.647 152.301 412.211 152.451 412.593 152.923C413.237 153.714 413.253 155.207 412.629 156.251C412.354 156.711 411.766 157.39 410.67 157.468C411.027 158.306 411.546 159.068 412.152 159.556C414.321 161.302 414.809 162.005 415.059 165.496C415.071 165.669 414.941 165.818 414.768 165.831C414.761 165.831 414.754 165.833 414.747 165.833ZM410.438 156.848C410.445 156.848 410.45 156.848 410.456 156.848C411.339 156.846 411.827 156.37 412.091 155.929C412.625 155.035 412.529 153.835 412.108 153.318C411.889 153.048 411.608 152.978 411.252 153.102C410.686 153.298 410.334 153.771 410.206 154.509C410.085 155.207 410.183 156.04 410.438 156.848Z" fill="#DC6637"/>
<path d="M453.183 138.513L449.515 146.969C449.515 146.969 443.142 155.432 436.491 155.656C429.842 155.883 425.193 151.77 422.916 147.441C420.635 143.112 417.352 129.562 417.352 129.562C418.277 127.227 418.792 125.361 418.986 123.394C419.075 122.507 419.097 121.598 419.059 120.617C419.012 119.303 418.864 117.861 418.629 116.163C420.184 111.784 427.152 106.505 434.137 108.924C434.137 108.924 434.143 112.774 436.486 117.64C436.938 118.57 437.474 119.541 438.109 120.53C438.336 120.882 438.579 121.237 438.832 121.592C443.517 128.15 447.122 128.27 451.065 128.352C451.065 128.352 452.26 125.217 455.096 127.015C457.929 128.813 455.579 135.378 453.183 138.513Z" fill="#FBC89F"/>
<path d="M438.568 137.469C438.573 140.498 441.033 142.951 444.063 142.946C447.093 142.941 449.545 140.481 449.54 137.451C449.536 134.422 447.076 131.969 444.046 131.974C441.016 131.979 438.563 134.439 438.568 137.469Z" fill="#DC6637"/>
<path d="M423.278 121.644C422.092 121.692 420.341 122.263 418.987 123.395C419.076 122.508 419.097 121.6 419.06 120.619C419.651 120.146 420.412 119.659 421.223 119.463C423.409 118.936 424.741 121.587 423.278 121.644Z" fill="#DC6637"/>
<path d="M438.108 120.531C434.957 120.452 430.939 120.525 430.567 119.901C429.863 118.722 431.704 117.82 433.548 117.629C434.615 117.518 435.619 117.548 436.487 117.641C436.938 118.571 437.473 119.542 438.108 120.531Z" fill="#DC6637"/>
<path d="M429.22 141.901C428.552 141.902 427.88 141.725 427.365 141.393C426.922 141.108 426.641 140.732 426.574 140.337C426.506 139.935 426.649 138.696 426.909 136.542C427.197 134.164 427.554 131.205 427.441 129.963C427.251 127.864 426.599 126.51 423.822 125.81C423.654 125.768 423.552 125.598 423.594 125.43C423.636 125.262 423.807 125.16 423.975 125.203C427.089 125.988 427.861 127.652 428.066 129.908C428.183 131.215 427.838 134.084 427.533 136.617C427.338 138.232 427.136 139.901 427.192 140.233C427.23 140.453 427.411 140.678 427.704 140.865C428.315 141.259 429.2 141.383 429.958 141.18C430.74 140.971 431.346 140.717 431.833 140.514C432.406 140.274 432.86 140.085 433.311 140.085C433.484 140.084 433.624 140.225 433.624 140.398C433.624 140.571 433.485 140.711 433.312 140.712C432.986 140.712 432.603 140.872 432.074 141.093C431.57 141.303 430.943 141.565 430.12 141.785C429.831 141.863 429.525 141.901 429.22 141.901Z" fill="#2B2F53"/>
<path d="M435.402 130.854C435.403 131.667 436.064 132.326 436.877 132.325C437.69 132.323 438.349 131.662 438.348 130.849C438.346 130.036 437.685 129.377 436.872 129.379C436.06 129.38 435.4 130.041 435.402 130.854Z" fill="#2B2F53"/>
<path d="M421.297 132.01C421.298 132.823 421.96 133.482 422.772 133.481C423.585 133.479 424.244 132.818 424.243 132.005C424.242 131.193 423.581 130.534 422.768 130.535C421.955 130.536 421.296 131.197 421.297 132.01Z" fill="#2B2F53"/>
<path d="M436.904 130.827C436.894 130.827 436.883 130.827 436.873 130.827C436.7 130.826 436.559 130.685 436.56 130.512C436.561 130.34 436.702 130.2 436.874 130.2C436.886 130.2 436.898 130.2 436.91 130.2C437.981 130.198 439.657 129.742 439.941 128.9C439.997 128.736 440.175 128.649 440.338 128.704C440.502 128.76 440.59 128.936 440.535 129.1C440.091 130.407 437.921 130.826 436.904 130.827Z" fill="#2B2F53"/>
<path d="M422.785 131.99C421.962 131.992 420.248 131.333 419.545 129.927C419.467 129.772 419.529 129.585 419.684 129.507C419.84 129.431 420.027 129.491 420.105 129.646C420.699 130.834 422.301 131.42 422.852 131.361C423.027 131.343 423.179 131.467 423.197 131.639C423.215 131.81 423.091 131.966 422.919 131.984C422.878 131.988 422.834 131.99 422.785 131.99Z" fill="#2B2F53"/>
<path d="M434.404 149.306C431.986 149.785 430.85 148.23 429.16 145.124C429.505 145.052 430.019 144.938 430.643 144.801C432.885 144.303 436.502 143.488 438.384 143.158C439.115 143.027 439.584 142.973 439.61 143.034C440.087 144.199 436.82 148.826 434.404 149.306Z" fill="#2B2F53"/>
<path d="M438.383 143.16C438.235 143.994 437.994 144.976 437.642 145.377C436.977 146.132 432.785 146.412 432.471 146.413C432.215 146.413 431.543 145.965 430.644 144.801C432.886 144.303 436.501 143.49 438.383 143.16Z" fill="white"/>
<path d="M429.16 145.439C429.018 145.439 428.888 145.34 428.854 145.195C428.816 145.026 428.92 144.858 429.089 144.82C429.431 144.74 437.5 142.882 439.585 142.722C439.757 142.709 439.91 142.838 439.923 143.011C439.936 143.184 439.806 143.335 439.633 143.348C437.596 143.504 429.313 145.411 429.23 145.43C429.206 145.435 429.183 145.439 429.16 145.439Z" fill="#2B2F53"/>
<path d="M451.92 133.331C451.766 133.331 451.631 133.217 451.609 133.06C451.607 133.04 451.329 131.063 450.759 128.419C450.722 128.25 450.831 128.083 451 128.046C451.169 128.009 451.334 128.117 451.372 128.286C451.947 130.955 452.227 132.954 452.23 132.974C452.254 133.146 452.134 133.303 451.962 133.327C451.948 133.33 451.934 133.331 451.92 133.331Z" fill="#2B2F53"/>
<path d="M436.004 155.977C430.394 155.986 425.424 152.879 422.639 147.587C420.366 143.273 417.182 130.19 417.047 129.636C417.007 129.468 417.111 129.297 417.278 129.256C417.449 129.216 417.617 129.32 417.658 129.487C417.69 129.622 420.957 143.049 423.193 147.294C424.224 149.254 428.221 155.626 436.48 155.342C442.713 155.133 448.828 147.346 449.243 146.809L452.896 138.387C452.966 138.228 453.15 138.157 453.308 138.225C453.467 138.294 453.54 138.478 453.471 138.637L449.803 147.093C449.793 147.116 449.78 147.137 449.765 147.158C449.501 147.508 443.225 155.742 436.502 155.969C436.335 155.974 436.17 155.977 436.004 155.977Z" fill="#2B2F53"/>
<path d="M418.644 163.811C417.484 163.842 415.632 163.519 413.441 165.522C411.25 167.525 406.028 173.377 401.072 182.741C396.574 191.243 397.337 195.485 397.966 198.07C398.253 199.248 400.693 200.423 400.693 200.423C406.775 190.821 412.58 181.082 414.688 176.852C416.795 172.622 418.689 168.518 419.013 167.379C419.337 166.24 418.644 163.811 418.644 163.811Z" fill="#EE5F80"/>
<path d="M463.74 192.384C463.712 192.384 463.684 192.38 463.656 192.373C463.489 192.327 463.391 192.154 463.437 191.988C464.969 186.427 472.408 172.826 472.723 172.249C472.806 172.098 472.997 172.042 473.148 172.125C473.3 172.209 473.356 172.399 473.272 172.55C473.195 172.69 465.554 186.662 464.041 192.153C464.003 192.292 463.878 192.384 463.74 192.384Z" fill="#EE5F80"/>
<path d="M481.273 211.765C481.273 211.765 487.152 212.672 488.869 206.63C491.098 198.785 491.56 185.24 491.116 176.946C490.53 166.021 480.712 163.124 474.349 163.242C467.985 163.36 463.595 162.046 460.299 161.049C460.299 161.049 458.174 163.085 451.808 173.335C451.808 173.335 444.387 183.784 447.457 194.769C448.567 198.741 458.416 200.774 460.445 203.755C462.475 206.736 464.819 208.881 465.035 210.159C465.035 210.159 469.824 206.412 473.559 208.857C477.293 211.302 481.799 215.406 481.799 215.406L481.273 211.765Z" fill="#EE5F80"/>
<path d="M401.375 199.655C401.346 199.655 401.315 199.651 401.286 199.642C401.22 199.623 399.624 199.13 397.345 196.298C397.237 196.163 397.258 195.966 397.393 195.858C397.529 195.749 397.725 195.771 397.833 195.905C399.989 198.586 401.448 199.038 401.463 199.042C401.628 199.09 401.723 199.264 401.675 199.43C401.634 199.567 401.511 199.655 401.375 199.655Z" fill="#EE5F80"/>
<path d="M396.053 200.345C395.986 200.345 395.917 200.323 395.86 200.278C395.724 200.171 395.7 199.974 395.807 199.838C396.707 198.691 398.356 197.136 398.426 197.071C398.553 196.952 398.75 196.958 398.868 197.084C398.987 197.21 398.981 197.408 398.855 197.527C398.838 197.542 397.171 199.116 396.3 200.225C396.238 200.304 396.146 200.345 396.053 200.345Z" fill="#EE5F80"/>
<path d="M396.922 203.948C396.079 203.949 395.537 203.772 395.241 203.406C394.846 202.918 395.043 202.28 395.175 201.857C395.191 201.805 395.21 201.744 395.226 201.689C395.093 201.691 394.901 201.71 394.747 201.725C393.974 201.802 392.681 201.93 392.451 200.863C392.292 200.12 392.823 199.243 393.154 198.787C393.848 197.829 395.169 196.658 396.604 196.507C396.772 196.487 396.93 196.615 396.948 196.787C396.966 196.958 396.84 197.112 396.669 197.13C395.518 197.252 394.33 198.234 393.662 199.155C393.217 199.769 392.989 200.372 393.066 200.731C393.168 201.211 393.86 201.184 394.687 201.102C395.22 201.049 395.571 201.016 395.772 201.24C395.958 201.449 395.872 201.724 395.773 202.043C395.671 202.373 395.543 202.785 395.728 203.012C395.852 203.167 396.256 203.407 397.572 203.287C397.743 203.274 397.898 203.398 397.914 203.571C397.929 203.743 397.802 203.896 397.631 203.911C397.374 203.935 397.138 203.948 396.922 203.948Z" fill="#EE5F80"/>
<path d="M397.352 202.077C397.292 202.077 397.232 202.06 397.179 202.025C397.035 201.93 396.994 201.734 397.09 201.59C397.172 201.468 399.073 198.601 399.428 198.097C399.527 197.956 399.722 197.922 399.864 198.021C400.006 198.122 400.04 198.316 399.94 198.458C399.591 198.954 397.633 201.907 397.613 201.936C397.553 202.027 397.454 202.077 397.352 202.077Z" fill="#EE5F80"/>
<path d="M431.695 183.184C431.555 183.185 431.427 183.089 431.391 182.947C431.348 182.779 431.45 182.61 431.618 182.568C433.097 182.195 442.756 182.072 443.167 182.068L443.169 182.068C443.341 182.067 443.482 182.206 443.484 182.377C443.486 182.55 443.347 182.693 443.174 182.695C439.722 182.737 432.897 182.893 431.77 183.175C431.745 183.182 431.72 183.184 431.695 183.184Z" fill="#EE5F80"/>
<path d="M436.895 190.507C435.149 190.51 433.674 190.462 433.266 190.31C433.104 190.25 433.021 190.069 433.082 189.907C433.143 189.746 433.322 189.662 433.485 189.722C434.409 190.067 443.371 189.76 444.306 189.686C444.481 189.673 444.63 189.802 444.643 189.975C444.656 190.148 444.527 190.299 444.355 190.312C444.093 190.333 440.05 190.502 436.895 190.507Z" fill="#EE5F80"/>
<path d="M479.213 220.606C479.052 220.607 478.888 220.598 478.717 220.58C476.905 220.4 476.318 219.027 475.89 218.024C475.743 217.68 475.603 217.354 475.452 217.187C475.396 217.124 475.367 217.113 475.367 217.113C475.31 217.125 475.13 217.306 475.011 217.425C474.641 217.797 474.082 218.359 473.134 218.405C471.496 218.485 470.481 217.921 469.734 216.519C469.132 215.389 468.987 215.363 468.05 215.186C467.88 215.154 467.77 214.991 467.801 214.82C467.833 214.65 467.994 214.537 468.167 214.57C469.318 214.787 469.602 214.941 470.287 216.224C470.919 217.411 471.711 217.848 473.103 217.779C473.809 217.745 474.23 217.322 474.568 216.982C474.836 216.712 475.075 216.471 475.39 216.488C475.58 216.493 475.757 216.587 475.919 216.768C476.139 217.013 476.291 217.367 476.466 217.778C476.873 218.733 477.335 219.813 478.778 219.957C479.635 220.043 480.308 219.88 480.778 219.472C481.423 218.911 481.592 217.968 481.622 217.275C481.693 215.559 481.174 213.265 481.169 213.242C481.131 213.073 481.236 212.906 481.405 212.868C481.575 212.828 481.742 212.934 481.781 213.103C481.802 213.199 482.324 215.502 482.249 217.301C482.2 218.471 481.832 219.385 481.188 219.944C480.683 220.383 480.02 220.605 479.213 220.606Z" fill="#EE5F80"/>
<path d="M480.007 213.188C479.923 213.188 479.838 213.154 479.775 213.086C474.174 207.012 470.969 206.65 468.849 206.41C468.677 206.39 468.552 206.235 468.572 206.063C468.591 205.892 468.743 205.767 468.919 205.787C471.132 206.038 474.477 206.417 480.236 212.662C480.354 212.789 480.346 212.988 480.219 213.105C480.159 213.16 480.083 213.188 480.007 213.188Z" fill="#EE5F80"/>
<path d="M470.469 213.203C470.436 213.203 470.4 213.198 470.367 213.186C470.203 213.131 470.115 212.954 470.171 212.79C470.214 212.661 471.248 209.628 472.517 208.222C472.632 208.093 472.831 208.084 472.959 208.2C473.088 208.315 473.097 208.514 472.982 208.642C471.799 209.953 470.775 212.959 470.765 212.99C470.721 213.12 470.6 213.202 470.469 213.203Z" fill="#EE5F80"/>
<path d="M475.996 214.331C475.984 214.331 475.973 214.33 475.961 214.329C475.79 214.31 475.665 214.156 475.683 213.985C475.686 213.957 475.979 211.181 475.99 209.354C475.991 209.182 476.131 209.042 476.303 209.042L476.305 209.042C476.478 209.043 476.619 209.185 476.618 209.358C476.606 211.217 476.309 214.023 476.307 214.051C476.289 214.211 476.153 214.331 475.996 214.331Z" fill="#EE5F80"/>
<path d="M479.187 217.047C479.182 217.047 479.176 217.047 479.171 217.047C478.998 217.038 478.864 216.891 478.873 216.718C478.874 216.686 479.034 213.484 478.868 212.036C478.848 211.864 478.972 211.709 479.143 211.689C479.316 211.668 479.47 211.793 479.49 211.965C479.662 213.464 479.505 216.617 479.498 216.75C479.49 216.918 479.353 217.047 479.187 217.047Z" fill="#EE5F80"/>
<path d="M461.776 161.478C456.455 166.4 436.592 202.135 436.592 202.135C434.97 200.882 428.321 171.164 428.029 163.048C428.029 163.048 433.224 164.564 435.894 162.69C436.595 162.197 436.672 161.498 436.33 160.231C435.946 158.81 435.042 156.68 433.911 153.324C433.859 153.175 433.812 153.024 433.759 152.868L448.27 139.074C448.27 139.074 450.239 142.197 453.69 152.073C456.96 161.444 461.776 161.478 461.776 161.478Z" fill="#FBC89F"/>
<g opacity="0.5">
<path d="M474.112 239.4C473.682 241.093 473.454 242.098 473.851 243.802C473.915 244.081 473.992 244.374 474.094 244.704C479.159 262.492 418.871 265.639 422.471 240.867C422.52 239.849 422.493 238.972 422.403 238.094C422.183 235.983 421.531 233.847 420.304 229.817C417.657 221.146 412.795 210.723 412.795 210.723C412.795 210.723 415.6 199.207 417.917 192.042C420.221 184.89 424.882 171.895 425.821 170.457C426.76 169.005 429.845 165.21 429.845 165.21C430.561 175.703 436.666 199.747 436.666 199.747C438.593 195.864 442.107 190.033 445.937 182.611C445.937 182.611 454.938 195.521 457.999 200.706C460.575 205.077 461.168 202.278 463.196 205.735C463.553 206.319 463.796 206.7 463.961 206.929C463.949 207.018 463.949 207.12 463.962 207.26C464.105 209.129 462.582 211.612 464.884 211.685C465.673 211.709 466.259 212.293 466.68 212.992C466.859 213.666 467.077 214.391 467.332 215.192C467.639 216.133 467.484 214.352 466.68 212.992C463.545 200.786 474.803 209.685 474.803 209.685C474.803 209.685 479.523 218.62 479.536 218.62C479.536 218.671 475.591 233.687 474.112 239.4Z" fill="#EE5F80"/>
</g>
<path d="M446.513 155.876C445.236 158.051 439.126 159.647 436.329 160.23C435.945 158.81 435.457 158.859 434.326 155.503L440.508 155.665C440.508 155.665 448.171 153.045 446.513 155.876Z" fill="#2B2F53"/>
<path d="M448.796 138.649C449.628 134.502 451.146 133.018 451.919 133.017C451.919 133.017 452.983 131.023 454.65 131.01C454.849 131.009 454.749 132.63 454.511 134.969C457.814 130.483 452.911 147.96 452.721 150.858C452.721 150.858 453.64 146.354 456.04 145.869C457.143 145.647 456.353 148.207 455.828 150.853C455.303 153.5 452.621 160.655 450.91 164.665C450.647 165.282 452.953 174.364 454.725 179.433C456.497 184.502 459.093 191.775 462.617 197.458C466.14 203.14 468.041 205.608 468.23 213.546C468.23 213.546 469.243 213.191 470.171 214.424C471.099 215.658 471.719 216.671 472.954 216.625C474.189 216.578 474.674 214.676 475.906 215.518C477.137 216.361 477.676 219.264 477.675 219.087C477.675 218.911 473.764 228.046 472.885 229.944C472.007 231.842 469.671 232.904 464.026 233.486C458.382 234.069 457.902 233.576 457.232 231.203C456.465 228.494 456.338 230.282 453.297 224.549C449.895 218.136 448.74 214.767 447.755 206.036C446.771 197.305 444.813 186.549 444.052 178.92C443.291 171.292 442.842 166.354 442.842 166.354C442.842 166.354 440.987 164.415 440.322 162.3C439.658 160.184 440.271 157.625 442.95 150.476C445.629 143.327 446.062 138.698 448.796 138.649Z" fill="#FBC89F"/>
<path d="M451.712 169.327C451.571 169.328 451.443 169.231 451.408 169.087C450.416 165.022 450.564 164.672 450.621 164.54C451.491 162.503 452.551 159.799 453.459 157.304C453.519 157.141 453.698 157.058 453.861 157.118C454.024 157.177 454.108 157.355 454.048 157.518C453.138 160.023 452.071 162.74 451.198 164.787C451.171 164.94 451.304 166.017 452.017 168.939C452.058 169.107 451.954 169.277 451.786 169.318C451.762 169.325 451.737 169.327 451.712 169.327Z" fill="#2B2F53"/>
<path d="M443.783 148.452C443.75 148.452 443.716 148.445 443.683 148.434C443.519 148.378 443.431 148.2 443.486 148.036C443.85 146.968 444.174 145.954 444.459 145.059C445.736 141.055 446.526 138.574 448.538 138.351C449.31 134.703 450.683 132.919 451.727 132.721C452.025 132.231 453.077 130.708 454.648 130.695L454.649 130.695C454.75 130.695 454.842 130.738 454.913 130.815C455.041 130.956 455.186 131.114 454.913 134.076C455.115 133.934 455.322 133.874 455.529 133.962C455.976 134.149 456.158 134.847 455.687 137.741C455.659 137.911 455.499 138.027 455.328 138.001C455.158 137.973 455.04 137.81 455.068 137.64C455.427 135.432 455.346 134.774 455.282 134.583C455.201 134.639 455.037 134.783 454.763 135.155C454.679 135.268 454.53 135.312 454.398 135.261C454.267 135.21 454.185 135.077 454.199 134.937C454.443 132.538 454.46 131.66 454.436 131.338C453.092 131.512 452.204 133.147 452.195 133.164C452.141 133.266 452.035 133.33 451.92 133.33C451.352 133.331 449.918 134.647 449.104 138.71C449.075 138.854 448.949 138.958 448.802 138.961C447.05 138.992 446.3 141.349 445.055 145.251C444.769 146.148 444.444 147.165 444.079 148.239C444.035 148.369 443.913 148.451 443.783 148.452Z" fill="#2B2F53"/>
<path d="M444.053 179.232C443.894 179.232 443.758 179.11 443.741 178.949C443.049 172.015 442.61 167.248 442.54 166.486C442.174 166.089 440.634 164.332 440.024 162.392C439.972 162.227 440.063 162.051 440.228 161.999C440.394 161.946 440.569 162.039 440.622 162.204C441.257 164.227 443.052 166.115 443.07 166.134C443.118 166.185 443.149 166.251 443.155 166.323C443.159 166.372 443.612 171.348 444.364 178.887C444.381 179.059 444.256 179.214 444.084 179.231C444.074 179.232 444.063 179.232 444.053 179.232Z" fill="#2B2F53"/>
<path d="M447.623 148.445C447.601 148.445 447.58 148.442 447.558 148.438C447.389 148.403 447.281 148.238 447.316 148.069C447.946 145.025 449.357 139.909 449.526 139.33C449.557 139.223 449.528 139.185 449.517 139.17C449.416 139.035 449.034 138.962 448.798 138.961C448.625 138.96 448.486 138.821 448.485 138.648C448.485 138.475 448.625 138.336 448.798 138.336C448.944 138.335 449.688 138.356 450.017 138.793C450.122 138.931 450.225 139.166 450.128 139.504C449.961 140.08 448.555 145.17 447.929 148.195C447.899 148.343 447.768 148.444 447.623 148.445Z" fill="#2B2F53"/>
<path d="M450.31 147.126C450.292 147.126 450.275 147.125 450.258 147.122C450.087 147.093 449.971 146.932 450 146.761C450.93 141.216 452.068 135.692 452.391 134.408C452.529 133.861 452.48 133.628 452.415 133.53C452.34 133.417 452.152 133.369 451.873 133.327C451.701 133.302 451.584 133.143 451.609 132.972C451.634 132.8 451.795 132.681 451.966 132.708C452.317 132.761 452.711 132.844 452.936 133.183C453.139 133.488 453.16 133.926 453 134.561C452.677 135.837 451.546 141.336 450.618 146.865C450.593 147.017 450.46 147.126 450.31 147.126Z" fill="#2B2F53"/>
<path d="M452.332 146.488C452.313 146.488 452.294 146.486 452.275 146.483C452.104 146.451 451.991 146.288 452.022 146.118C452.034 146.056 453.18 139.834 454.205 134.904C454.241 134.735 454.408 134.626 454.576 134.661C454.746 134.696 454.855 134.863 454.82 135.032C453.797 139.954 452.651 146.169 452.639 146.232C452.612 146.383 452.479 146.487 452.332 146.488Z" fill="#2B2F53"/>
<path d="M452.416 154.515C452.411 154.515 452.407 154.515 452.402 154.515C452.229 154.508 452.094 154.362 452.102 154.189C452.103 154.148 452.148 153.157 452.411 150.823C452.429 150.651 452.582 150.526 452.756 150.546C452.928 150.565 453.052 150.721 453.033 150.893C452.773 153.201 452.729 154.204 452.729 154.215C452.721 154.382 452.583 154.515 452.416 154.515Z" fill="#2B2F53"/>
<path d="M423.604 214.691C422.993 214.692 422.53 214.524 422.286 214.363C421.9 214.109 420.733 213.021 421.896 209.701C422.883 206.88 431.577 199.793 436.228 199.299C436.355 199.286 436.476 199.349 436.536 199.461C436.596 199.573 436.584 199.71 436.504 199.808C436.068 200.346 434.997 201.941 433.757 203.789C431.754 206.775 429.262 210.491 427.756 212.285C426.161 214.187 424.66 214.689 423.604 214.691ZM435.539 200.054C431.011 201.128 423.36 207.418 422.487 209.908C421.449 212.875 422.425 213.704 422.631 213.84C423.168 214.194 425.05 214.533 427.276 211.881C428.759 210.114 431.241 206.413 433.236 203.44C434.19 202.018 434.997 200.814 435.539 200.054Z" fill="#EE5F80"/>
<path d="M427.775 230.771L427.769 230.771C427.596 230.768 427.458 230.624 427.462 230.451C427.641 221.489 430.338 209.28 432.628 204.352C432.701 204.196 432.887 204.128 433.043 204.2C433.2 204.274 433.269 204.46 433.195 204.617C431.192 208.926 428.28 220.844 428.088 230.464C428.084 230.635 427.946 230.771 427.775 230.771Z" fill="#EE5F80"/>
<path d="M447.043 214.928C446.315 214.929 445.375 214.572 444.203 213.849C441.032 211.895 438.261 207.134 435.961 199.702C435.921 199.575 435.967 199.436 436.075 199.357C436.183 199.278 436.329 199.276 436.439 199.352C436.772 199.583 437.121 199.823 437.482 200.072C442.024 203.2 448.245 207.486 448.694 210.654C449.007 212.863 448.772 214.141 447.954 214.676C447.698 214.843 447.394 214.928 447.043 214.928ZM436.836 200.387C439.007 207.083 441.66 211.545 444.531 213.315C445.999 214.22 447.063 214.51 447.611 214.153C448.185 213.776 448.341 212.629 448.074 210.742C447.663 207.846 441.322 203.478 437.126 200.588C437.028 200.52 436.931 200.453 436.836 200.387Z" fill="#EE5F80"/>
<path d="M443.038 233.689C442.988 233.689 442.939 233.679 442.892 233.653C442.739 233.572 442.68 233.383 442.761 233.23C444.56 229.825 444.363 216.475 439.883 209.033C439.794 208.885 439.842 208.693 439.991 208.603C440.139 208.514 440.332 208.561 440.421 208.71C444.816 216.01 445.432 229.514 443.315 233.522C443.259 233.627 443.15 233.689 443.038 233.689Z" fill="#EE5F80"/>
<path d="M210.492 229.009C204.402 229.299 193.885 226.909 192.15 222.411C190.845 219.03 194.037 214.508 194.037 214.508C194.037 214.508 192.262 212.948 191.819 210.255C191.376 207.562 191.706 206.243 194.233 201.024C196.761 195.804 202.201 186.243 211.321 183.936C220.442 181.628 228.628 185.036 229.562 186.794C230.012 187.642 230.551 189.98 230.551 189.98C230.551 189.98 231.268 187.981 233.792 188.607C236.782 189.348 238.134 196.078 235.194 203.111C232.255 210.144 210.492 229.009 210.492 229.009Z" fill="#2B2F53"/>
<path d="M194.038 214.82C193.961 214.82 193.885 214.794 193.825 214.738C193.698 214.621 193.691 214.422 193.808 214.295C195.967 211.949 197.985 210.264 199.745 209.319C199.744 209.23 199.743 209.139 199.744 209.047C199.788 204.099 202.509 196.31 208.376 190.905C212.765 186.86 217.876 186.128 220.92 186.731C222.782 187.1 224.123 187.981 224.696 189.212C225.596 191.147 222.322 196.31 221.945 196.893C221.851 197.038 221.657 197.081 221.512 196.987C221.367 196.893 221.325 196.698 221.419 196.553C222.389 195.051 224.767 190.852 224.127 189.477C223.641 188.431 222.458 187.674 220.798 187.346C217.669 186.727 212.748 187.729 208.801 191.366C203.089 196.629 200.431 204.189 200.371 209.008C200.8 208.815 201.212 208.671 201.604 208.575C202.845 208.271 204.145 208.693 204.837 209.628C205.392 210.377 205.426 211.282 204.934 212.11C204.346 213.097 203.112 213.586 202 213.276C201.386 213.104 200.048 212.45 199.788 210.008C198.157 210.938 196.284 212.532 194.268 214.72C194.207 214.787 194.123 214.82 194.038 214.82ZM200.39 209.69C200.506 211.311 201.138 212.384 202.17 212.673C203.013 212.91 203.949 212.538 204.394 211.789C204.757 211.18 204.735 210.545 204.333 210.002C203.799 209.279 202.737 208.941 201.752 209.183C201.324 209.288 200.868 209.457 200.39 209.69Z" fill="#505C7B"/>
<path d="M225.085 196.653C225.024 196.653 224.963 196.636 224.909 196.599C224.766 196.502 224.729 196.308 224.825 196.164C228.81 190.272 227.855 187.662 227.087 185.565L226.961 185.216C226.902 185.053 226.988 184.874 227.151 184.815C227.313 184.757 227.493 184.842 227.551 185.005L227.676 185.348C228.449 187.462 229.51 190.357 225.344 196.515C225.283 196.604 225.185 196.653 225.085 196.653Z" fill="#505C7B"/>
<path d="M196.896 220.591C195.832 220.591 194.959 220.359 194.398 219.914C194.262 219.806 194.24 219.609 194.348 219.474C194.456 219.338 194.653 219.316 194.788 219.424C195.447 219.949 196.76 220.102 198.3 219.837C199.783 219.581 204.922 218.27 208.752 212.132C208.844 211.986 209.038 211.94 209.185 212.032C209.331 212.123 209.375 212.317 209.284 212.463C205.316 218.822 199.955 220.188 198.407 220.455C197.874 220.546 197.366 220.591 196.896 220.591Z" fill="#505C7B"/>
<path d="M240.726 227.243L232.56 239.759L232.407 240.102L231.046 243.053C219.318 232.496 209.855 233.183 205.326 234.493C205.314 234.391 205.314 234.302 205.314 234.213C201.701 233.374 197.249 230.283 197.58 226.734C197.923 223.185 203.1 224.431 203.1 224.431C204.767 223.172 206.026 221.824 206.967 220.437C206.967 220.437 206.967 220.437 206.967 220.425C212.5 212.207 206.522 202.744 206.522 202.744C216.889 194.374 227.739 193.84 229.685 194.31C231.619 194.781 234.226 199.526 235.575 202.273C235.676 202.489 235.778 202.693 235.867 202.871C236.478 204.156 236.821 204.919 237.037 205.631C237.203 206.178 237.304 206.7 237.381 207.361C237.584 209.04 238.182 213.721 239.187 217.537C239.976 220.565 240.484 224.877 240.663 226.556C240.701 226.988 240.726 227.243 240.726 227.243Z" fill="#E69F82"/>
<path d="M209.37 234.76C208.749 234.76 207.464 234.72 206.235 234.438C206.066 234.4 205.962 234.231 206 234.062C206.039 233.892 206.206 233.788 206.375 233.826C207.958 234.19 209.705 234.129 209.723 234.128C209.887 234.115 210.041 234.255 210.048 234.428C210.054 234.601 209.92 234.747 209.747 234.754C209.728 234.755 209.591 234.76 209.37 234.76Z" fill="#2B2F53"/>
<path d="M240.572 242.277C237.742 244.91 235.467 245.444 233.319 245.159C232.934 245.107 232.186 244.977 231.202 244.796C226.677 243.962 217.204 242.017 215.726 241.529C212.07 240.321 204.441 225.375 204.095 224.359C205.764 223.095 207.023 221.743 207.958 220.357C208.029 221.454 208.247 222.418 208.521 222.845C208.972 223.541 212.498 230.151 214.636 231.891C216.771 233.628 218.66 234.823 222.536 235.37C222.536 235.37 224.421 230.151 228.2 228.213C231.976 226.276 240.889 226.081 241.649 226.476C242.41 226.87 242.51 230.215 242.659 234.133C242.808 238.051 243.406 239.643 240.572 242.277Z" fill="#E69F82"/>
<path d="M240.572 242.277C237.742 244.91 235.467 245.444 233.319 245.159C232.934 245.107 232.186 244.977 231.202 244.796C226.677 243.962 217.204 242.017 215.726 241.529C212.07 240.321 204.441 225.375 204.095 224.359C205.764 223.095 207.023 221.743 207.958 220.357C208.029 221.454 208.247 222.418 208.521 222.845C208.972 223.541 212.498 230.151 214.636 231.891C216.771 233.628 218.66 234.823 222.536 235.37C222.536 235.37 224.421 230.151 228.2 228.213C231.976 226.276 240.889 226.081 241.649 226.476C242.41 226.87 242.51 230.215 242.659 234.133C242.808 238.051 243.406 239.643 240.572 242.277Z" fill="#2B2F53"/>
<path d="M223.452 216.972C223.452 217.874 224.182 218.604 225.084 218.604C225.986 218.604 226.716 217.874 226.716 216.972C226.716 216.07 225.986 215.34 225.084 215.34C224.182 215.34 223.452 216.07 223.452 216.972Z" fill="#2B2F53"/>
<path d="M235.193 213.741C235.193 214.538 235.84 215.184 236.637 215.184C237.435 215.184 238.081 214.538 238.081 213.741C238.081 212.943 237.435 212.297 236.637 212.297C235.84 212.297 235.193 212.943 235.193 213.741Z" fill="#2B2F53"/>
<path d="M213.921 211.674C213.67 213.252 213.921 214.508 213.921 214.508C213.921 214.508 215.605 212.535 217.542 210.597C219.48 208.66 221.237 207.8 222.134 207.692C223.031 207.584 225.434 208.23 225.649 207.692C225.864 207.154 225.084 205.325 222.026 205.146C218.716 204.951 214.674 210.491 213.921 211.674Z" fill="#2B2F53"/>
<path d="M238.032 205.559C236.917 205.591 235.542 205.714 234.678 206.096C234.678 206.096 234.358 203.832 235.02 203.495C235.337 203.333 236.127 203.048 236.854 202.799C237.469 204.073 237.816 204.847 238.032 205.559Z" fill="#2B2F53"/>
<path d="M235.408 226.528C233.719 225.079 231.069 224.964 230.719 225.808C230.37 226.653 231.911 226.957 235.408 226.528Z" fill="#2B2F53"/>
<path d="M237.566 226.677C237.498 226.677 237.428 226.655 237.371 226.608C237.236 226.5 237.214 226.301 237.322 226.167C238.131 225.159 236.479 220.469 235.773 218.466L235.725 218.328C235.03 216.356 233.142 215.407 232.431 215.049C232.313 214.989 232.227 214.946 232.181 214.917C232.047 214.832 231.64 214.572 231.862 210.586C231.905 209.811 232.509 208.895 233.275 207.738C233.653 207.167 234.042 206.576 234.404 205.942C234.489 205.792 234.682 205.738 234.832 205.825C234.982 205.91 235.034 206.102 234.949 206.252C234.576 206.905 234.163 207.532 233.798 208.084C233.113 209.119 232.52 210.015 232.487 210.62C232.389 212.378 232.424 214.076 232.559 214.411C232.597 214.431 232.648 214.458 232.713 214.49C233.411 214.841 235.538 215.91 236.316 218.121L236.363 218.257C237.615 221.811 238.76 225.379 237.812 226.56C237.75 226.637 237.658 226.677 237.566 226.677Z" fill="#2B2F53"/>
<path d="M225.962 221.394C225.823 221.394 225.696 221.3 225.659 221.16C225.615 220.992 225.714 220.822 225.882 220.777C226.93 220.5 227.323 219.372 227.323 219.162C227.323 218.989 227.463 218.848 227.636 218.848C227.809 218.848 227.95 218.989 227.95 219.162C227.95 219.65 227.383 221.028 226.042 221.383C226.015 221.39 225.989 221.394 225.962 221.394Z" fill="#2B2F53"/>
<path d="M222.386 217.531C222.299 217.531 222.213 217.53 222.125 217.528C221.952 217.521 221.816 217.376 221.822 217.203C221.829 217.03 221.973 216.888 222.147 216.901C223.308 216.941 224.457 216.669 224.468 216.667C224.635 216.627 224.805 216.731 224.846 216.899C224.887 217.067 224.782 217.236 224.615 217.277C224.567 217.289 223.531 217.531 222.386 217.531Z" fill="#2B2F53"/>
<path d="M236.982 213.765C236.921 213.765 236.86 213.762 236.801 213.756C236.629 213.738 236.503 213.584 236.521 213.413C236.539 213.241 236.693 213.112 236.865 213.133C237.282 213.175 237.925 212.971 238.629 212.572C238.779 212.487 238.971 212.54 239.056 212.69C239.142 212.84 239.088 213.032 238.938 213.118C238.402 213.422 237.648 213.765 236.982 213.765Z" fill="#2B2F53"/>
<path d="M231.556 230.096C233.999 229.328 238.597 228.425 239.345 228.6C240.093 228.776 241.422 232.659 240.533 233.616C238.08 236.255 229.225 237.137 228.432 236.564C227.64 235.992 226.529 234.804 226.799 233.924C227.069 233.043 230.68 230.372 231.556 230.096Z" fill="#E69F82"/>
<path d="M230.629 232.968C229.744 232.968 228.881 232.894 228.099 232.73C227.93 232.694 227.822 232.529 227.857 232.36C227.893 232.191 228.058 232.081 228.228 232.117C231.719 232.85 236.563 231.686 237.874 230.537C238.004 230.423 238.203 230.435 238.317 230.566C238.432 230.696 238.418 230.895 238.288 231.009C237.069 232.075 233.712 232.968 230.629 232.968Z" fill="#2B2F53"/>
<path d="M232.043 235.123C231.933 235.123 231.83 235.121 231.733 235.116C231.56 235.105 231.427 234.958 231.437 234.785C231.447 234.612 231.592 234.48 231.768 234.49C233.176 234.569 235.635 234.045 236.077 233.571C236.196 233.445 236.393 233.439 236.52 233.557C236.646 233.676 236.652 233.874 236.534 234C235.913 234.663 233.488 235.123 232.043 235.123Z" fill="#2B2F53"/>
<path d="M207.647 231.434C207.537 231.434 207.431 231.376 207.373 231.273C205.762 228.39 203.833 224.536 203.814 224.498C203.737 224.343 203.8 224.156 203.956 224.078C204.111 224.001 204.298 224.063 204.375 224.218C204.394 224.256 206.315 228.098 207.92 230.967C208.006 231.119 207.951 231.31 207.8 231.394C207.751 231.42 207.699 231.434 207.647 231.434Z" fill="#2B2F53"/>
<path d="M284.077 278.223C283.375 282.091 282.163 282.808 282.163 282.808L289.102 289.639C289.102 289.639 290.665 287.678 291.858 287.218C293.05 286.758 296.324 284.336 297.315 282.943C298.305 281.549 299.418 275.857 299.678 275.703C299.939 275.549 310.986 271.558 311.972 271.2C312.958 270.842 310.279 267.774 309.501 267.874C308.724 267.974 299.383 268.658 297.06 268.596C294.738 268.533 294.014 268.375 293.397 267.129C292.781 265.884 293.621 263.453 293.934 262.885C294.247 262.316 297.892 257.878 298.152 257.569C298.413 257.259 305.527 253.045 305.945 252.477C306.362 251.909 305.809 247.867 305.29 247.967C304.772 248.068 298.231 251.562 296.675 252.384C295.118 253.205 287.728 261.044 287.363 261.716C286.997 262.387 284.684 274.892 284.077 278.223Z" fill="#E69F82"/>
<path d="M297.325 268.915C297.226 268.914 297.134 268.914 297.052 268.911C294.755 268.85 293.821 268.692 293.117 267.27C292.424 265.868 293.35 263.3 293.66 262.735C294.006 262.107 297.876 257.413 297.913 257.369C298.035 257.224 298.642 256.836 300.819 255.481C301.93 254.789 303.191 254.006 304.155 253.379C304.3 253.285 304.495 253.325 304.588 253.47C304.683 253.616 304.642 253.81 304.496 253.905C303.527 254.535 302.264 255.321 301.15 256.014C299.925 256.777 298.535 257.642 298.382 257.785C298.055 258.176 294.501 262.51 294.21 263.038C293.904 263.591 293.142 265.907 293.679 266.992C294.196 268.038 294.672 268.22 297.07 268.284C298.793 268.328 304.444 267.957 307.19 267.753C307.363 267.741 307.512 267.868 307.526 268.041C307.539 268.215 307.408 268.364 307.235 268.377C304.416 268.586 299.313 268.923 297.325 268.915Z" fill="#2B2F53"/>
<g opacity="0.5">
<path d="M324.251 244.659C324.149 244.659 324.048 244.626 323.961 244.559C323.758 244.398 323.722 244.102 323.884 243.898L327.14 239.764C327.3 239.561 327.597 239.527 327.8 239.687C328.004 239.847 328.039 240.143 327.878 240.347L324.621 244.481C324.529 244.599 324.39 244.659 324.251 244.659Z" fill="#505C7B"/>
</g>
<g opacity="0.5">
<path d="M318.555 244.159C318.327 244.159 318.126 243.993 318.09 243.76L316.981 236.494C316.942 236.237 317.117 235.998 317.374 235.959C317.631 235.919 317.87 236.095 317.91 236.352L319.019 243.617C319.058 243.874 318.883 244.113 318.626 244.153C318.602 244.157 318.579 244.159 318.555 244.159Z" fill="#505C7B"/>
</g>
<g opacity="0.5">
<path d="M314.43 246.915C314.345 246.915 314.261 246.893 314.184 246.845L308.872 243.545C308.652 243.408 308.583 243.118 308.72 242.898C308.858 242.678 309.146 242.609 309.368 242.747L314.68 246.046C314.9 246.184 314.968 246.474 314.831 246.694C314.742 246.837 314.588 246.915 314.43 246.915Z" fill="#505C7B"/>
</g>
<path d="M416.395 138.339C416.06 134.657 416.332 134.051 416.827 133.83C417.321 133.609 419.042 134.926 419.835 136.904C420.628 138.882 431.866 154.234 431.866 154.234C431.866 154.234 431.046 157.005 431.378 158.873C431.71 160.741 433.003 162.758 430.291 166.516C428.853 168.509 427.745 169.547 426.67 171.48C425.537 173.516 421.841 184.497 419.337 192.138C417.132 198.87 414.402 213.536 411.21 219.879C408.018 226.223 402.707 228.152 401.555 228.409C400.403 228.667 399.061 230.078 397.138 228.8C395.215 227.522 395.149 225.794 395.339 224.77C395.53 223.745 394.889 223.297 393.732 220.034C392.574 216.77 391.994 214.302 394.866 208.554C397.738 202.805 403.871 193.639 406.744 188.641C409.617 183.643 417.981 168.712 417.978 166.535C417.975 164.842 416.475 148.587 415.797 141.694C415.588 139.561 415.628 138.163 416.395 138.339Z" fill="#FBC89F"/>
<path d="M424.536 167.504C424.512 167.504 424.489 167.5 424.465 167.495C424.296 167.456 424.191 167.288 424.23 167.119C425.327 162.388 424.324 158.211 421.074 153.975C420.968 153.838 420.995 153.642 421.132 153.537C421.269 153.432 421.468 153.457 421.572 153.594C424.945 157.992 425.983 162.334 424.841 167.261C424.808 167.406 424.679 167.504 424.536 167.504Z" fill="#2B2F53"/>
<path d="M428.855 156.978C428.734 156.978 428.62 156.908 428.567 156.792C427.127 153.543 426.835 152.879 426.835 152.879C426.765 152.721 426.837 152.534 426.995 152.464C427.152 152.394 427.338 152.465 427.408 152.622C427.408 152.622 427.699 153.289 429.14 156.538C429.211 156.695 429.138 156.881 428.981 156.951C428.94 156.969 428.897 156.978 428.855 156.978Z" fill="#2B2F53"/>
<path d="M419.089 149.726C418.971 149.726 418.859 149.66 418.805 149.547C418.731 149.39 418.798 149.203 418.955 149.129C421.323 148.011 423.357 148.288 423.521 148.301C423.694 148.313 423.824 148.463 423.812 148.636C423.799 148.809 423.647 148.938 423.476 148.926C423.438 148.924 421.441 148.65 419.223 149.696C419.18 149.717 419.134 149.726 419.089 149.726Z" fill="#2B2F53"/>
<path d="M419.357 148.271C419.199 148.271 419.062 148.152 419.045 147.992C419.04 147.94 418.477 142.758 418.29 141.287C418.093 139.733 417.676 138.748 416.207 138.637C416.034 138.624 415.905 138.474 415.917 138.301C415.93 138.128 416.082 138 416.254 138.012C418.259 138.163 418.723 139.713 418.912 141.208C419.099 142.685 419.663 147.871 419.668 147.923C419.686 148.095 419.562 148.25 419.39 148.268C419.379 148.27 419.369 148.271 419.357 148.271Z" fill="#2B2F53"/>
<path d="M436.5 155.969C436.333 155.974 436.169 155.977 436.004 155.977C430.393 155.986 425.422 152.879 422.637 147.587C420.364 143.273 417.181 130.19 417.047 129.636C417.006 129.468 417.11 129.297 417.277 129.256C417.448 129.216 417.615 129.32 417.656 129.487C417.688 129.622 420.956 143.049 423.192 147.294C424.223 149.254 428.218 155.626 436.478 155.342C436.478 155.342 439.686 155.094 441.326 154.595L441.022 155.626L436.5 155.969Z" fill="#2B2F53"/>
<path d="M332.666 268.087L331.788 276.406L325.327 270.771C325.327 270.771 326.064 267.655 324.869 268.151L316.741 274.396C316.741 274.396 315.176 272.743 314.909 271.865C314.629 271 313.968 268.774 313.968 268.774L314.298 266.281L330.974 261.943L332.666 268.087Z" fill="#A4B9EF"/>
<path d="M314.309 266.319L313.938 268.806L310.995 269.05L308.562 269.265L308.147 267.388L304.894 252.412C305.267 252.164 305.512 251.977 305.577 251.889C305.655 251.789 305.696 251.586 305.713 251.319L312.385 250.22L314.309 266.319Z" fill="#A3B7EE"/>
</g>
</g>
<defs>
<clipPath id="clip0_104_1449">
<rect width="636" height="636" fill="white"/>
</clipPath>
</defs>
</svg>
