<svg width="455" height="454" viewBox="0 0 455 454" fill="none" xmlns="http://www.w3.org/2000/svg">
<g clip-path="url(#clip0_104_2005)">
<mask id="mask0_104_2005" style="mask-type:luminance" maskUnits="userSpaceOnUse" x="0" y="0" width="455" height="454">
<path d="M455 0H0V454H455V0Z" fill="white"/>
</mask>
<g mask="url(#mask0_104_2005)">
<path d="M124.393 382.578C124.393 376.368 174.463 371.334 236.227 371.334C297.991 371.334 348.061 376.368 348.061 382.578C348.061 388.788 297.991 393.822 236.227 393.822C174.463 393.822 124.393 388.788 124.393 382.578Z" fill="#DED1D1"/>
<path d="M234.329 268.312C234.329 268.312 240.256 305.977 248.32 327.902C256.169 349.24 269.133 378.409 270.043 379.317C273.114 379.544 287.105 380.452 287.105 380.452" stroke="#781A16" stroke-width="10" stroke-linecap="round"/>
<path d="M194.285 275.578C194.285 275.578 192.014 323.929 192.469 336.641C192.836 346.89 197.357 378.069 197.299 378.636C196.844 379.204 183.82 378.693 183.82 378.693" stroke="#781A16" stroke-width="10" stroke-linecap="round"/>
<path d="M295.022 210.721C295.022 210.721 324.846 218.923 333.603 245.748C338.989 262.248 336.023 296.367 336.023 296.367" stroke="#781A16" stroke-width="10.1491" stroke-linecap="round"/>
<path d="M334.04 279.946L322.321 283.208" stroke="#781A16" stroke-width="10.1491" stroke-linecap="round"/>
<path d="M340.01 280.459L347.131 285.759" stroke="#781A16" stroke-width="10.1491" stroke-linecap="round"/>
<path d="M149.805 240.682C149.805 240.682 131.924 253.3 126.712 276.37C123.822 289.161 127.78 321.796 127.78 321.796" stroke="#781A16" stroke-width="10.1489" stroke-linecap="round"/>
<path d="M128.649 305.801L141.051 308.645" stroke="#781A16" stroke-width="10.1489" stroke-linecap="round"/>
<path d="M125.018 304.28L116.459 311.516" stroke="#781A16" stroke-width="10.1489" stroke-linecap="round"/>
<path d="M210.666 304.337C195.335 297.54 141.799 255.758 129.258 243.532C116.717 231.306 107.298 212.945 107.244 190.646C107.19 168.347 118.317 142.287 135.358 131.846C145.718 125.498 156.918 125.434 166.51 128.849C180.048 133.668 191.12 145.258 197.275 161.052C210.055 133.831 233.882 116.839 256.515 108.941C273.839 102.895 291.943 101.174 306.487 109.139C321.03 117.103 328.773 136.083 328.773 158.636C328.773 204.428 284.112 254.967 210.666 304.337Z" fill="#EB534B"/>
<path d="M222.207 168.817C221.99 167.062 221.788 165.283 222.005 163.528C222.222 161.772 222.902 160.017 224.189 158.851C225.476 157.685 227.438 157.233 228.961 158.043C230.617 158.923 231.348 160.946 231.753 162.826C232.259 165.176 232.483 167.59 232.417 169.997C232.365 171.86 232.016 173.949 230.541 175.021C229.139 176.041 227.097 175.721 225.766 174.602C224.435 173.483 222.613 172.106 222.207 168.817Z" fill="#781A16"/>
<path d="M151.843 166.269C151.858 168.29 151.426 170.287 151.325 172.306C151.223 174.324 151.504 176.482 152.744 178.046C153.983 179.609 156.404 180.283 157.957 179.055C158.829 178.366 159.272 177.25 159.578 176.161C160.085 174.356 160.321 172.471 160.275 170.591C160.236 168.956 159.967 167.278 159.13 165.89C158.294 164.502 156.802 163.455 155.222 163.533C153.641 163.611 151.834 165.014 151.843 166.269Z" fill="#781A16"/>
<path d="M238.614 176.162C236.499 177.072 235.301 179.635 235.576 181.986C235.851 184.337 237.402 186.399 239.363 187.623C241.325 188.847 243.655 189.31 245.945 189.368C247.615 189.41 249.319 189.241 250.858 188.568C252.397 187.896 253.761 186.672 254.363 185.061C255.185 182.866 254.438 180.257 252.876 178.544C251.314 176.83 249.065 175.923 246.81 175.596C244.554 175.269 242.037 174.687 238.614 176.162Z" fill="#FF7C75"/>
<path d="M141.734 182.566C139.931 184.028 139.439 186.828 140.312 189.018C141.185 191.208 143.211 192.766 145.418 193.404C147.624 194.042 149.991 193.846 152.213 193.269C153.833 192.849 155.431 192.214 156.74 191.141C158.049 190.068 159.047 188.511 159.211 186.793C159.435 184.45 158.041 182.142 156.093 180.923C154.145 179.704 151.744 179.451 149.486 179.757C147.228 180.064 144.652 180.2 141.734 182.566Z" fill="#FF7C75"/>
<path d="M232.352 147.782C229.671 150.383 226.991 152.983 224.31 155.583C223.64 156.234 222.945 156.901 222.084 157.243C221.223 157.585 220.145 157.527 219.501 156.85C218.823 156.137 218.831 154.952 219.257 154.054C219.684 153.157 220.443 152.481 221.181 151.832C223.306 149.964 225.431 148.097 227.555 146.229C228.176 145.684 228.811 145.128 229.574 144.829C230.337 144.531 231.263 144.535 231.903 145.053C232.542 145.572 233.175 146.984 232.352 147.782Z" fill="#781A16"/>
<path d="M153.988 157.042C156.304 158.78 158.619 160.52 160.936 162.259C162.145 163.167 163.742 164.147 165.211 163.67C166.467 163.262 166.9 161.906 166.514 160.811C166.128 159.716 165.145 158.826 164.195 157.981C163.032 156.949 161.871 155.918 160.709 154.885C159.453 153.77 157.937 152.56 156.134 152.626C154.447 152.687 153.09 154.102 153.988 157.042Z" fill="#781A16"/>
<path d="M232.576 211.079C232.625 211.512 232.651 211.942 232.663 212.374C232.864 218.972 229.291 222.669 223.639 224.915C219.087 226.724 214.202 228.58 209.476 226.731C208.351 226.295 207.243 225.822 206.155 225.337C201.077 223.09 195.614 223.537 190.321 224.293C189.744 224.382 189.165 224.503 188.593 224.664C183.081 226.235 178.705 227.213 173 226.541C169.429 226.115 165.906 224.677 164.808 220.938C164.05 218.369 163.29 215.29 164.14 213.068C165.315 210.086 166.082 206.971 167.471 204.459C169.123 201.461 170.953 201.008 171.851 200.168C174.068 198.118 177.147 195.962 180.069 196.367C182.913 196.762 185.594 198.348 188.459 198.362C193.437 198.39 196.858 192.454 201.507 190.795C206.065 189.332 209.425 190.63 213.449 191.516C216.706 192.233 219.792 191.525 222.517 193.642C223.166 194.147 223.788 194.681 224.394 195.236C225.254 196.036 226.081 196.901 226.837 197.827C229.936 201.545 232.122 206.179 232.576 211.079Z" fill="#781A16"/>
<path d="M232.576 211.078C232.625 211.511 232.652 211.941 232.663 212.373C232.865 218.971 229.291 222.668 223.639 224.914C219.087 226.723 214.202 228.579 209.476 226.73C208.352 226.294 207.243 225.821 206.155 225.336C201.078 223.089 195.615 223.536 190.321 224.292C190.403 223.601 198.301 212.479 208.404 211.286C217.738 209.95 226.835 203.836 232.576 211.078Z" fill="#FF7C75"/>
<path d="M226.837 197.826C226.331 197.893 225.824 197.917 225.333 197.94C217.187 198.314 209.64 201.891 201.737 203.924C195.067 205.64 188.034 204.59 181.72 207.444C178.784 208.764 175.494 211.225 172.442 210.107C170.105 209.244 168.389 206.97 167.471 204.458C169.123 201.461 170.953 201.008 171.851 200.168C174.068 198.118 177.147 195.208 180.069 195.613C182.913 196.008 185.594 198.348 188.459 198.362C193.437 198.389 196.869 192.531 201.507 190.794C206.065 189.237 209.425 190.629 213.449 191.515C216.706 192.232 219.792 191.525 222.517 193.642C223.166 194.147 223.788 194.681 224.393 195.236C225.254 196.036 226.081 196.899 226.837 197.826Z" fill="white"/>
</g>
</g>
<defs>
<clipPath id="clip0_104_2005">
<rect width="455" height="454" fill="white"/>
</clipPath>
</defs>
</svg>
