<svg width="31" height="30" viewBox="0 0 31 30" fill="none" xmlns="http://www.w3.org/2000/svg">
<path d="M10.5 11.25H20.5M10.5 16.25H18M23 5C23.9946 5 24.9484 5.39509 25.6517 6.09835C26.3549 6.80161 26.75 7.75544 26.75 8.75V18.75C26.75 19.7446 26.3549 20.6984 25.6517 21.4017C24.9484 22.1049 23.9946 22.5 23 22.5H16.75L10.5 26.25V22.5H8C7.00544 22.5 6.05161 22.1049 5.34835 21.4017C4.64509 20.6984 4.25 19.7446 4.25 18.75V8.75C4.25 7.75544 4.64509 6.80161 5.34835 6.09835C6.05161 5.39509 7.00544 5 8 5H23Z" stroke="black" stroke-width="1.5" stroke-linecap="round" stroke-linejoin="round"/>
</svg>
