<svg width="20" height="20" viewBox="0 0 20 20" fill="none" xmlns="http://www.w3.org/2000/svg">
<path d="M7.19718 4.08674L12.9609 9.55232C13.0873 9.67157 13.1582 9.83255 13.1582 10.0003C13.1582 10.168 13.0873 10.329 12.9609 10.4483L7.19843 15.9139C7.07208 16.0338 7.00129 16.1953 7.00129 16.3636C7.00129 16.5318 7.07208 16.6933 7.19843 16.8133C7.26015 16.8724 7.33392 16.9194 7.41539 16.9514C7.49686 16.9835 7.58439 17 7.6728 17C7.76122 17 7.84875 16.9835 7.93022 16.9514C8.01169 16.9194 8.08546 16.8724 8.14718 16.8133L13.9097 11.3489C14.2883 10.989 14.5005 10.5047 14.5005 10.0003C14.5005 9.49588 14.2883 9.01162 13.9097 8.6517L8.14718 3.18729C8.08544 3.12802 8.01159 3.08091 7.93001 3.04874C7.84842 3.01657 7.76075 3 7.67218 3C7.58361 3 7.49594 3.01657 7.41436 3.04874C7.33277 3.08091 7.25892 3.12802 7.19718 3.18729C7.07084 3.30728 7.00004 3.46878 7.00004 3.63702C7.00004 3.80525 7.07084 3.96675 7.19718 4.08674Z" fill="black"/>
</svg>
