<svg width="30" height="30" viewBox="0 0 30 30" fill="none" xmlns="http://www.w3.org/2000/svg">
<path d="M3.23235 1.97403C3.07541 1.89553 2.8996 1.86266 2.7249 1.87915C2.55021 1.89563 2.38364 1.96082 2.24416 2.06729C2.10468 2.17375 1.99788 2.31723 1.93591 2.48139C1.87393 2.64556 1.85928 2.82382 1.8936 2.9959L4.52423 12.0897C4.57328 12.2591 4.66915 12.4113 4.80083 12.5287C4.93251 12.6461 5.09464 12.724 5.2686 12.7534L15.9374 14.5403C16.4399 14.6396 16.4399 15.3596 15.9374 15.459L5.2686 17.2459C5.09464 17.2753 4.93251 17.3532 4.80083 17.4706C4.66915 17.588 4.57328 17.7402 4.52423 17.9097L1.8936 27.0034C1.85928 27.1755 1.87393 27.3537 1.93591 27.5179C1.99788 27.6821 2.10468 27.8255 2.24416 27.932C2.38364 28.0385 2.55021 28.1037 2.7249 28.1202C2.8996 28.1366 3.07541 28.1038 3.23235 28.0253L27.6073 15.8378C27.7629 15.7598 27.8936 15.6402 27.985 15.4921C28.0764 15.3441 28.1248 15.1736 28.1248 14.9997C28.1248 14.8257 28.0764 14.6552 27.985 14.5072C27.8936 14.3591 27.7629 14.2395 27.6073 14.1615L3.23235 1.97403Z" fill="#969696"/>
</svg>
