<svg width="30" height="31" viewBox="0 0 30 31" fill="none" xmlns="http://www.w3.org/2000/svg">
<path d="M10 11.75H20M10 16.75H17.5M14.9875 23.7575L10 26.75V23H7.5C6.50544 23 5.55161 22.6049 4.84835 21.9017C4.14509 21.1984 3.75 20.2446 3.75 19.25V9.25C3.75 8.25544 4.14509 7.30161 4.84835 6.59835C5.55161 5.89509 6.50544 5.5 7.5 5.5H22.5C23.4946 5.5 24.4484 5.89509 25.1517 6.59835C25.8549 7.30161 26.25 8.25544 26.25 9.25V16.125M23.75 28V20.5M23.75 20.5L27.5 24.25M23.75 20.5L20 24.25" stroke="#FE686C" stroke-width="2.5" stroke-linecap="round" stroke-linejoin="round"/>
</svg>
