<svg width="31" height="30" viewBox="0 0 31 30" fill="none" xmlns="http://www.w3.org/2000/svg">
<path d="M20.8855 5.4795C20.148 5.4795 19.778 5.4795 19.4417 5.3545L19.303 5.297C18.9767 5.147 18.7155 4.887 18.193 4.3645C16.9905 3.162 16.3892 2.56075 15.6505 2.5045C15.5506 2.4985 15.4504 2.4985 15.3505 2.5045C14.6117 2.56075 14.0105 3.162 12.808 4.3645C12.2855 4.887 12.0242 5.14825 11.698 5.297L11.5605 5.3545C11.223 5.4795 10.8542 5.4795 10.1155 5.4795H9.97798C8.09423 5.4795 7.15173 5.4795 6.56548 6.0645C5.97923 6.6495 5.98048 7.59325 5.98048 9.477V9.6145C5.98048 10.352 5.98048 10.722 5.85548 11.0583C5.83715 11.1058 5.81798 11.152 5.79798 11.197C5.64798 11.5233 5.38798 11.7845 4.86548 12.307C3.66298 13.5095 3.06173 14.1108 3.00548 14.8495C2.99948 14.9494 2.99948 15.0496 3.00548 15.1495C3.06173 15.8883 3.66298 16.4895 4.86548 17.692C5.38798 18.2145 5.64923 18.4758 5.79798 18.802C5.81881 18.847 5.83798 18.8928 5.85548 18.9395C5.98048 19.277 5.98048 19.6458 5.98048 20.3845V20.522C5.98048 22.4058 5.98048 23.3483 6.56548 23.9345C7.15048 24.5208 8.09423 24.5195 9.97798 24.5195H10.1155C10.853 24.5195 11.223 24.5195 11.5592 24.6445C11.6067 24.662 11.653 24.6812 11.698 24.702C12.0242 24.852 12.2855 25.112 12.808 25.6345C14.0105 26.837 14.6117 27.4383 15.3505 27.4945C15.4505 27.502 15.5505 27.502 15.6505 27.4945C16.3892 27.4383 16.9905 26.837 18.193 25.6345C18.7155 25.112 18.9767 24.852 19.303 24.702C19.348 24.6812 19.3938 24.662 19.4405 24.6445C19.778 24.5195 20.1467 24.5195 20.8855 24.5195H21.023C22.9067 24.5195 23.8492 24.5195 24.4355 23.9345C25.0217 23.3495 25.0205 22.4058 25.0205 20.522V20.3845C25.0205 19.647 25.0205 19.277 25.1455 18.9408C25.163 18.8933 25.1821 18.847 25.203 18.802C25.353 18.4758 25.613 18.2145 26.1355 17.692C27.338 16.4895 27.9392 15.8883 27.9955 15.1495C28.003 15.0495 28.003 14.9495 27.9955 14.8495C27.9392 14.1108 27.338 13.5095 26.1355 12.307C25.613 11.7845 25.353 11.5233 25.203 11.197L25.1455 11.0595C25.0205 10.722 25.0205 10.3533 25.0205 9.6145V9.477C25.0205 7.59325 25.0205 6.65075 24.4355 6.0645C23.8505 5.47825 22.9067 5.4795 21.023 5.4795H20.8855Z" stroke="black" stroke-width="1.5" stroke-linecap="round" stroke-linejoin="round"/>
<path d="M19.875 15C19.875 15.5745 19.7618 16.1434 19.542 16.6742C19.3221 17.205 18.9998 17.6873 18.5936 18.0936C18.1873 18.4998 17.705 18.8221 17.1742 19.042C16.6434 19.2618 16.0745 19.375 15.5 19.375C14.9255 19.375 14.3566 19.2618 13.8258 19.042C13.295 18.8221 12.8127 18.4998 12.4064 18.0936C12.0002 17.6873 11.6779 17.205 11.458 16.6742C11.2382 16.1434 11.125 15.5745 11.125 15C11.125 13.8397 11.5859 12.7269 12.4064 11.9064C13.2269 11.0859 14.3397 10.625 15.5 10.625C16.6603 10.625 17.7731 11.0859 18.5936 11.9064C19.4141 12.7269 19.875 13.8397 19.875 15Z" stroke="black" stroke-width="1.5" stroke-linecap="round" stroke-linejoin="round"/>
</svg>
